<svg xmlns="http://www.w3.org/2000/svg" width="40" height="64" viewBox="0 0 386 627"><path fill="none" stroke="#414042" stroke-width="14" stroke-miterlimit="14" d="M361.7 432.7c-8.2-4.6-15.1-21.3-18.6-40.9l20.3 11.5c-12.7-32.5-20.6-38.1-22.4-75.8-1.8-35.8-19.7-99.3-21.1-106.9-.3-1.4 34.7 9.4 34.7 9.4-64.1-49.6-41.9-103-47.4-107.4 13.1 1.2 22.7 5.7 22.7 5.7C306.1 65.5 254.7 13.6 178 13.4c-24.2-.1-64.3 28-65.8 37.7C69.4 48.9 74 78.9 79.4 94.7L59.7 60c-.9 12.4-39 47.6 10.7 60.6-13.8 3.9-24.9 16.4-24.9 37.4 0 29.8 5.5 52.5-14.5 75.3 1.4.3 2.7.5 4.1.4 6-.1 8.2 5.1 8.3 11.1 0 0-8.2 54.7-14.8 83.6-3.7 15.6-4.6 26.1-6.6 43.1-1.7 14.5-2.9 31-6 40.1l21.1-12c-.5 1.6-14.3 55.2-14.3 55.2 14.8.7 22.9-4.7 22.9-4.7l2.6 54.5c6.9-7.6 10.1-8 19.8-18.4-1.1 20.3-5.8 35.5-5.8 35.5 14.1-.6 25.9-10 34-18.8-3.8 16.5-7.4 33.6-2 46.6 0 0 6.3-8.2 17.9-19.1 7.6 32.6 10.9 45.8 10.9 45.8 6.8-16.4 20.6-14.1 29.8-26.1-.5 14.1-.5 20.5-3.9 34.3 0 0 14.5-5.7 24.3-16.4 7.7 21.3 18.5 42.8 18.5 42.8 8.5-18.6 17.3-38.2 24.2-53.8 8.1 21.4 33 20.9 33 20.9-13-13.4-6.6-20.1-10.3-33.5 13.9 18.4 36.1 28.5 36.1 28.5 2.7-13.6 4.1-26.6 4.8-38 10.4 3.1 24.6 3 29 .6-8-6.6-16.6-15.2-20.3-30.6 12.2 13.5 32.5 18.9 32.5 18.9-5.3-48.8-8.6-53.3-8.6-53.3l36.9 13.1c-3.4-10-6.5-28.9-8.9-47.3 11.2 1.8 21.5-3.6 21.5-3.6zM97.6 129.9s.1 0 0 0c.1 0 0-.1 0-.1 0-.7 24.2 14.6 24.1 14 4.3-4.5-.3-29.5 20.9-22 28.7 10.1 75.2 82.1 177.4 99-26.4-3.4-71-14.3-104.3-6.5-10 2.4-22.4 6.8-32.7 6.3-6.2-.3-12-1.8-17.5-3.2-33.2-8.3-60.6-12.6-96.4-7.1 18.3-25 29.6-63.2 28.5-80.4zM287 336.8c-24.5-28.5-71.1-24.1-97.8-7.5 0 0-17.7-11.5-42.7-10.5-15.8.7-34.6 6.4-53.5 23.5-34.2-7.8-33.4-93.5-33.1-106.7 0-.2.3-.2.3 0 6.1 39 17.9 59.4 50.7 60 46.8.8 59.5-37.8 62.3-52 1.5-7.6 5.4-8.3 9.8-8.4 7.8-.1 9.2 5.5 9.9 9.1 7.5 38.1 25.2 49.3 64.7 49.2 35.8-.1 48.8-40.4 50.9-56.9.5-2.6 3.3 70.4-21.5 100.2z"/></svg>