<?xml version="1.0" standalone="no"?>
<!DOCTYPE svg PUBLIC "-//W3C//DTD SVG 1.1//EN" "http://www.w3.org/Graphics/SVG/1.1/DTD/svg11.dtd" >
<svg xmlns="http://www.w3.org/2000/svg" xmlns:xlink="http://www.w3.org/1999/xlink" version="1.1">
<metadata>
Created by FontForge 20161003 at Sun Jan 22 12:56:07 2017
 By www-data
 Copyright (c) 1987, 1991, 1993, 2002 Fundicion Tipografica Neufville S. A.
 This record material and the data recorded thereon is the property of
 Fundicion Tipografica Neufville S. A. and Adobe Systems Incorporated,
 or its licensors, and may not be reproduced, used, displayed, modified,
 disclosed or transferred in any manner without the express written
 approval of Fundicion Tipografica Neufville S. A. and Adobe Systems
 Incorporated. 
</metadata>
<defs>
<font id="FuturaStd-ExtraBoldOblique" horiz-adv-x="832" >
  <font-face 
    font-family="Futura Std"
    font-weight="750"
    font-style="oblique"
    font-stretch="normal"
    units-per-em="1000"
    panose-1="2 11 9 3 2 2 4 2 2 4"
    ascent="825"
    descent="-175"
    x-height="531"
    cap-height="754"
    bbox="-249 -288 1696.38 1009"
    underline-thickness="50"
    underline-position="-100"
    slope="-9"
    stemh="206"
    stemv="258"
    unicode-range="U+0020-FB02"
  />
<missing-glyph horiz-adv-x="611" 
d="M111 0v700h500v-700h-500zM361 395l170 255h-340zM391 350l170 -255v510zM191 50h340l-170 255zM161 605v-510l170 255z" />
    <glyph glyph-name="f_i" unicode="fi" horiz-adv-x="822" 
d="M497 0l84 531h258l-84 -531h-258zM756 819c81 0 134 -47 122 -124c-14 -87 -88 -125 -162 -125s-136 38 -122 125c12 77 81 124 162 124zM158 522l9 56c24 155 108 241 268 241c38 0 74 -6 111 -12l-33 -205c-12 5 -21 9 -33 9c-44 0 -60 -36 -65 -71l-4 -20l89 11
l-33 -207l-82 7l-52 -331h-258l52 331l-71 -7l33 207z" />
    <glyph glyph-name="f_l" unicode="fl" horiz-adv-x="803" 
d="M487 0l128 811h258l-128 -811h-258zM158 522l9 56c24 155 108 241 268 241c38 0 74 -6 111 -12l-33 -205c-12 5 -21 9 -33 9c-44 0 -60 -36 -65 -71l-4 -20l89 11l-33 -207l-82 7l-52 -331h-258l52 331l-71 -7l33 207z" />
    <glyph glyph-name=".notdef" horiz-adv-x="611" 
d="M111 0v700h500v-700h-500zM361 395l170 255h-340zM391 350l170 -255v510zM191 50h340l-170 255zM161 605v-510l170 255z" />
    <glyph glyph-name="space" unicode=" " horiz-adv-x="416" 
 />
    <glyph glyph-name="exclam" unicode="!" horiz-adv-x="462" 
d="M407 288h-264l81 515h264zM267 239c73 0 141 -47 129 -127c-13 -79 -96 -124 -169 -124s-142 45 -129 124c12 80 96 127 169 127z" />
    <glyph glyph-name="quotedbl" unicode="&#x22;" horiz-adv-x="788" 
d="M696 381h-179l19 373h259zM391 381h-179l19 373h259z" />
    <glyph glyph-name="numbersign" unicode="#" 
d="M438 801h142l-88 -224h136l88 224h142l-89 -224h108l-19 -124h-132l-54 -138h126l-20 -124h-159l-74 -191h-143l75 191h-136l-74 -191h-143l74 191h-122l20 124h152l54 138h-129l19 124h157zM445 453l-54 -138h137l57 138h-140z" />
    <glyph glyph-name="dollar" unicode="$" 
d="M460 752l14 122h171l-28 -116c66 -5 127 -26 181 -58l-106 -190c-42 41 -102 64 -165 64c-31 0 -70 -11 -76 -48c-6 -39 53 -39 79 -42c142 -17 262 -58 236 -228c-22 -135 -138 -231 -271 -247l-12 -124h-162l26 123c-85 3 -161 37 -225 84l108 198
c55 -53 118 -96 202 -96c32 0 86 5 92 48c6 35 -34 43 -60 47l-42 7c-128 21 -230 71 -206 221c22 138 122 198 244 235z" />
    <glyph glyph-name="percent" unicode="%" horiz-adv-x="1145" 
d="M946 404c133 0 230 -64 207 -206c-22 -143 -148 -210 -273 -210s-229 67 -207 210c23 142 140 206 273 206zM922 254c-33 0 -52 -28 -57 -56c-4 -29 7 -53 40 -53s52 24 56 53c5 28 -6 56 -39 56zM384 766c133 0 230 -64 208 -206c-23 -143 -149 -210 -274 -210
s-229 67 -206 210c22 142 139 206 272 206zM361 616c-33 0 -53 -28 -57 -56c-5 -29 6 -53 39 -53s52 24 57 53c4 28 -6 56 -39 56zM249 0l640 776h137l-636 -776h-141z" />
    <glyph glyph-name="ampersand" unicode="&#x26;" horiz-adv-x="962" 
d="M545 602c-28 0 -51 -22 -55 -49c-4 -21 11 -49 27 -59c25 13 58 36 62 64c4 22 -12 44 -34 44zM630 0l-41 57c-84 -50 -158 -69 -249 -69c-149 0 -291 67 -264 238c17 111 117 169 219 188c-37 40 -62 80 -52 141c24 149 183 211 311 211c121 0 266 -68 243 -209
c-14 -88 -90 -163 -177 -188l58 -69c50 30 92 73 134 114l117 -162l-132 -89l148 -163h-315zM467 196l-80 95c-23 -14 -50 -30 -54 -58c-6 -39 23 -57 59 -57c28 0 49 10 75 20z" />
    <glyph glyph-name="quoteright" unicode="&#x2019;" horiz-adv-x="493" 
d="M317 381h-201l180 373h259z" />
    <glyph glyph-name="parenleft" unicode="(" horiz-adv-x="450" 
d="M335 839l175 -112c-88 -109 -145 -288 -166 -417c-25 -160 -20 -309 34 -418l-211 -111l-30 96c-42 129 -56 289 -33 433s87 304 170 433z" />
    <glyph glyph-name="parenright" unicode=")" horiz-adv-x="450" 
d="M170 727l211 112l31 -96c41 -129 55 -289 32 -433s-87 -304 -169 -433l-62 -96l-175 111c88 109 141 258 166 418c21 129 20 308 -34 417z" />
    <glyph glyph-name="asterisk" unicode="*" horiz-adv-x="492" 
d="M357 380h-106l14 89l-84 -44l-39 86l92 51l-76 48l67 90l70 -45l15 99h106l-16 -104l89 50l39 -90l-85 -48l70 -42l-68 -95l-73 47z" />
    <glyph glyph-name="plus" unicode="+" horiz-adv-x="800" 
d="M363 400l32 200h200l-32 -200h200l-31 -200h-200l-32 -200h-200l32 200h-200l31 200h200z" />
    <glyph glyph-name="comma" unicode="," horiz-adv-x="416" 
d="M175 -166h-201l180 373h259z" />
    <glyph glyph-name="hyphen" unicode="-" horiz-adv-x="485" 
d="M90 165l35 220h357l-35 -220h-357z" />
    <glyph glyph-name="period" unicode="." horiz-adv-x="416" 
d="M246 239c73 0 141 -47 129 -127c-13 -79 -96 -124 -169 -124s-142 45 -129 124c12 80 96 127 169 127z" />
    <glyph glyph-name="slash" unicode="/" horiz-adv-x="728" 
d="M143 -150h-149l696 961h148z" />
    <glyph glyph-name="zero" unicode="0" 
d="M537 766c228 0 334 -168 300 -382c-36 -226 -190 -396 -423 -396s-333 170 -297 396c34 214 192 382 420 382zM500 532c-82 0 -112 -93 -122 -155c-9 -58 -6 -166 71 -166s116 108 125 166c10 62 8 155 -74 155z" />
    <glyph glyph-name="one" unicode="1" 
d="M266 504l38 238l389 12l-119 -754h-272l81 512z" />
    <glyph glyph-name="two" unicode="2" 
d="M775 0h-749l343 267c54 42 190 148 200 215c6 34 -18 60 -52 60c-58 0 -73 -49 -82 -95h-268c55 220 168 319 395 319c157 0 309 -91 281 -266c-24 -152 -171 -246 -310 -287l-2 -8l132 18l149 9z" />
    <glyph glyph-name="three" unicode="3" 
d="M104 264h276c-9 -45 18 -85 64 -85c37 0 79 31 85 69s-21 70 -58 70c-13 0 -25 -2 -37 -4l25 157l21 -2c30 -3 61 23 66 54s-15 50 -45 50c-31 0 -56 -28 -57 -58h-270c47 189 193 251 365 251c127 0 302 -59 277 -216c-10 -62 -54 -121 -116 -146l-1 -6
c76 -20 111 -90 98 -170c-29 -183 -230 -240 -379 -240c-184 0 -338 70 -314 276z" />
    <glyph glyph-name="four" unicode="4" 
d="M472 464l-115 -119l-1 -4l134 7l18 113c3 21 12 42 22 62l-6 4c-14 -23 -32 -44 -52 -63zM75 143l31 198l374 413h324l-64 -406l96 7l-33 -212l-101 8l-17 -151h-260l34 151z" />
    <glyph glyph-name="five" unicode="5" 
d="M322 754h513l-33 -211h-323c-10 -29 -20 -60 -38 -87h7c30 33 97 40 135 40c138 0 243 -92 220 -236c-29 -185 -244 -272 -404 -272c-79 0 -226 26 -291 61l62 204c50 -30 153 -62 215 -62c46 0 136 16 145 75c10 61 -96 75 -139 75c-68 0 -139 -11 -205 -33z" />
    <glyph glyph-name="six" unicode="6" 
d="M474 754h359l-274 -212v-6c26 4 52 11 77 11c134 0 205 -126 185 -252c-32 -199 -219 -307 -403 -307c-188 0 -344 116 -311 319c17 110 85 198 171 274zM369 296c-9 -53 24 -93 78 -93c51 0 100 36 108 89c9 54 -26 98 -80 98c-51 0 -98 -45 -106 -94z" />
    <glyph glyph-name="seven" unicode="7" 
d="M379 519l-207 -7l38 242h732l-548 -754h-303l360 477c11 16 23 34 39 45l1 6z" />
    <glyph glyph-name="eight" unicode="8" 
d="M537 766c135 0 311 -62 284 -228c-11 -70 -65 -126 -135 -146l-1 -7c76 -20 123 -85 109 -169c-28 -177 -244 -228 -380 -228s-336 51 -308 228c14 84 81 149 163 169l1 7c-64 20 -100 76 -89 146c27 166 221 228 356 228zM507 576c-32 0 -60 -26 -65 -59
c-5 -31 18 -55 47 -55s60 24 65 55c5 33 -15 59 -47 59zM466 317c-37 0 -79 -30 -85 -71c-7 -43 21 -77 62 -77s79 34 86 77c6 41 -26 71 -63 71z" />
    <glyph glyph-name="nine" unicode="9" 
d="M116 0l215 167c17 13 32 27 51 34l1 5l-42 -2c-158 -8 -233 115 -210 265c31 195 216 297 394 297c195 0 356 -98 322 -313c-18 -113 -75 -190 -163 -269l-204 -184h-364zM400 457c-8 -53 25 -94 78 -94c49 0 95 42 103 90c8 49 -24 92 -74 92c-49 0 -99 -38 -107 -88z
" />
    <glyph glyph-name="colon" unicode=":" horiz-adv-x="416" 
d="M246 239c73 0 141 -47 129 -127c-13 -79 -96 -124 -169 -124s-142 45 -129 124c12 80 96 127 169 127zM294 543c73 0 142 -47 129 -127c-13 -79 -96 -124 -169 -124s-142 45 -129 124c13 80 96 127 169 127z" />
    <glyph glyph-name="semicolon" unicode=";" horiz-adv-x="416" 
d="M175 -166h-201l180 373h259zM344 543c73 0 142 -47 129 -127c-13 -79 -96 -124 -169 -124s-142 45 -129 124c13 80 96 127 169 127z" />
    <glyph glyph-name="less" unicode="&#x3c;" horiz-adv-x="800" 
d="M128 177l39 244l629 182l-34 -212l-346 -91l-1 -2l318 -91l-34 -212z" />
    <glyph glyph-name="equal" unicode="=" horiz-adv-x="800" 
d="M100 0l32 200h600l-32 -200h-600zM149 312l32 200h600l-32 -200h-600z" />
    <glyph glyph-name="greater" unicode="&#x3e;" horiz-adv-x="800" 
d="M767 421l-39 -244l-629 -182l34 212l346 91l1 2l-318 91l34 212z" />
    <glyph glyph-name="question" unicode="?" horiz-adv-x="697" 
d="M313 294l30 194c17 -5 33 -10 50 -10c48 0 93 28 101 79c5 29 -10 50 -40 50c-33 0 -56 -33 -62 -64h-257c31 165 187 271 345 271c167 0 289 -96 261 -273c-29 -179 -187 -256 -348 -256c-27 0 -54 3 -80 9zM396 239c73 0 141 -47 129 -127c-13 -79 -96 -124 -169 -124
s-142 45 -129 124c12 80 96 127 169 127z" />
    <glyph glyph-name="at" unicode="@" horiz-adv-x="800" 
d="M367 353c-8 -48 12 -91 61 -91c62 0 98 59 112 108c16 57 -8 96 -57 96c-57 0 -108 -59 -116 -113zM712 565l-90 -256c-9 -24 -28 -67 2 -64c36 4 100 85 119 171c35 166 -70 250 -223 250c-168 0 -297 -119 -325 -291c-28 -182 79 -290 250 -290c83 0 149 12 185 32
l71 -65c-75 -36 -172 -67 -279 -67c-215 0 -362 165 -327 390c36 223 231 391 444 391c88 0 165 -27 222 -86c58 -59 90 -136 75 -230c-13 -82 -47 -157 -95 -209c-58 -63 -120 -89 -168 -87c-27 1 -49 26 -53 57c-30 -29 -77 -57 -137 -57c-88 0 -155 82 -139 183
c20 121 118 237 242 237c51 0 90 -19 113 -61l18 52h95z" />
    <glyph glyph-name="A" unicode="A" horiz-adv-x="823" 
d="M321 94l-37 -94h-290l381 754h303l150 -754h-290l-10 94h-207zM398 273h110l-11 133c-3 32 -2 65 -2 97h-10z" />
    <glyph glyph-name="B" unicode="B" horiz-adv-x="736" 
d="M60 0l119 754h319c146 0 290 -35 262 -209c-10 -66 -53 -131 -123 -152l-1 -6c78 -29 120 -89 106 -179c-25 -155 -177 -208 -309 -208h-373zM387 464h25c40 0 86 4 94 56c9 56 -42 52 -82 52h-19zM362 305l-19 -125h31c45 0 110 1 119 63c10 63 -60 62 -104 62h-27z" />
    <glyph glyph-name="C" unicode="C" horiz-adv-x="656" 
d="M729 735l-37 -287c-38 41 -87 76 -149 76c-82 0 -159 -65 -172 -147c-13 -83 47 -147 129 -147c63 0 118 27 169 70l-53 -282c-47 -21 -151 -30 -200 -30c-215 0 -356 167 -322 382c34 220 235 396 456 396c62 0 125 -11 179 -31z" />
    <glyph glyph-name="D" unicode="D" horiz-adv-x="827" 
d="M64 0l119 754h279c253 0 430 -111 386 -388c-36 -224 -216 -366 -437 -366h-347zM420 518l-46 -292h17c91 0 167 42 183 141c17 106 -37 151 -137 151h-17z" />
    <glyph glyph-name="E" unicode="E" horiz-adv-x="624" 
d="M58 0l119 754h507l-32 -206h-231l-12 -72h211l-31 -196h-211l-11 -74h239l-33 -206h-515z" />
    <glyph glyph-name="F" unicode="F" horiz-adv-x="602" 
d="M62 0l119 754h505l-34 -216h-229l-12 -78h201l-31 -196h-201l-42 -264h-276z" />
    <glyph glyph-name="G" unicode="G" horiz-adv-x="891" 
d="M506 444h423c-21 -123 -37 -226 -142 -322c-93 -87 -224 -134 -341 -134c-230 0 -393 142 -355 384c39 246 243 394 480 394c131 0 301 -65 340 -194l-271 -94c-15 38 -51 58 -95 58c-98 0 -165 -84 -180 -175c-13 -83 27 -161 116 -161c43 0 101 20 121 66h-124z" />
    <glyph glyph-name="H" unicode="H" horiz-adv-x="819" 
d="M62 0l119 754h264l-40 -254h168l40 254h264l-119 -754h-264l41 262h-168l-41 -262h-264z" />
    <glyph glyph-name="I" unicode="I" horiz-adv-x="403" 
d="M64 0l119 754h274l-119 -754h-274z" />
    <glyph glyph-name="J" unicode="J" horiz-adv-x="529" 
d="M319 754h268l-80 -508c-24 -150 -147 -258 -298 -258c-78 0 -159 34 -212 82l130 233c8 -36 17 -79 60 -79c44 0 56 50 61 82z" />
    <glyph glyph-name="K" unicode="K" horiz-adv-x="821" 
d="M64 0l119 754h267l-57 -327h6c11 31 32 58 51 85l170 242h299l-294 -367l200 -387h-318l-94 228c-11 29 -31 57 -32 88h-6l-44 -316h-267z" />
    <glyph glyph-name="L" unicode="L" horiz-adv-x="579" 
d="M62 0l119 754h274l-81 -512h230l-38 -242h-504z" />
    <glyph glyph-name="M" unicode="M" horiz-adv-x="1083" 
d="M31 0l241 754h282l42 -396h7c10 33 20 68 35 100l131 296h279l5 -754h-265l28 413h-5c-9 -25 -18 -51 -29 -75l-163 -338h-160l-47 319c-3 32 -6 62 -3 94h-9c-6 -30 -13 -61 -21 -91l-83 -322h-265z" />
    <glyph glyph-name="N" unicode="N" horiz-adv-x="872" 
d="M58 0l119 754h263l180 -418h8c-1 63 -3 128 8 192l35 226h262l-119 -754h-262l-178 396h-8c0 -52 1 -101 -7 -151l-39 -245h-262z" />
    <glyph glyph-name="O" unicode="O" horiz-adv-x="904" 
d="M573 766c229 0 393 -154 355 -391c-38 -242 -248 -387 -478 -387s-394 145 -356 387c38 237 250 391 479 391zM534 518c-87 0 -152 -67 -164 -147c-14 -86 35 -145 118 -145s150 59 164 145c12 80 -31 147 -118 147z" />
    <glyph glyph-name="P" unicode="P" horiz-adv-x="728" 
d="M62 0l119 754h347c176 0 292 -90 263 -277c-25 -154 -136 -250 -289 -250h-140l-36 -227h-264zM413 548l-21 -131h27c48 0 101 8 111 69c9 59 -46 62 -91 62h-26z" />
    <glyph glyph-name="Q" unicode="Q" horiz-adv-x="924" 
d="M832 147l92 -123l-229 -90l-39 92c-68 -28 -142 -38 -211 -38c-228 0 -376 156 -340 387c39 241 250 391 478 391c239 0 393 -145 354 -391c-13 -83 -45 -159 -105 -228zM524 233l-52 70l175 32c9 17 12 28 15 42c13 84 -36 147 -117 147c-89 0 -150 -62 -163 -144
c-12 -79 29 -150 110 -150c11 0 21 0 32 3z" />
    <glyph glyph-name="R" unicode="R" horiz-adv-x="757" 
d="M62 0l119 754h331c170 0 303 -72 273 -262c-18 -114 -70 -162 -177 -196l-1 -6c12 -11 27 -23 39 -45l125 -245h-316l-82 242h-5l-38 -242h-268zM417 548l-20 -128h19c45 0 91 7 100 63c9 58 -31 65 -78 65h-21z" />
    <glyph glyph-name="S" unicode="S" horiz-adv-x="663" 
d="M32 57l118 213l12 -11c43 -38 97 -69 160 -69c27 0 72 11 77 45c6 34 -30 37 -54 42l-54 10c-104 19 -184 82 -165 200c28 179 207 279 371 279c86 0 162 -21 229 -66l-105 -193c-42 32 -91 57 -150 57c-24 0 -60 -9 -65 -40c-4 -28 29 -32 49 -37l60 -14
c112 -26 186 -88 166 -216c-29 -180 -207 -269 -370 -269c-95 0 -201 26 -279 69z" />
    <glyph glyph-name="T" unicode="T" horiz-adv-x="596" 
d="M91 509l38 245h576l-38 -245l-150 7l-82 -516h-274l82 516z" />
    <glyph glyph-name="U" unicode="U" horiz-adv-x="815" 
d="M601 754h274l-70 -446c-35 -220 -189 -320 -400 -320s-333 100 -298 320l70 446h274l-66 -420c-9 -59 -16 -111 57 -111s84 52 93 111z" />
    <glyph glyph-name="V" unicode="V" horiz-adv-x="814" 
d="M648 754h286l-411 -754h-232l-173 754h286l46 -343c5 -37 7 -74 1 -112h6c6 38 20 75 37 112z" />
    <glyph glyph-name="W" unicode="W" horiz-adv-x="1183" 
d="M117 754h284l24 -450h6c12 46 26 94 45 139l129 311h210l32 -450h6c11 44 23 90 40 133l126 317h285l-385 -754h-239l-21 410h-9c-9 -39 -17 -77 -32 -114l-123 -296h-233z" />
    <glyph glyph-name="X" unicode="X" horiz-adv-x="831" 
d="M612 754h309l-291 -353l205 -401h-312l-61 160c-5 15 -8 30 -8 46h-8c-8 -18 -18 -35 -30 -52l-108 -154h-312l328 401l-182 353h309l39 -107c8 -20 11 -41 14 -62h6c8 22 20 42 33 62z" />
    <glyph glyph-name="Y" unicode="Y" horiz-adv-x="773" 
d="M111 754h310l53 -197h8c12 24 23 48 36 71l74 126h308l-326 -429l-51 -325h-268l51 325z" />
    <glyph glyph-name="Z" unicode="Z" horiz-adv-x="771" 
d="M186 754h702l-410 -521l2 -4c22 2 44 4 65 4h228l-37 -233h-734l342 441c25 33 53 61 81 91l-3 3c-22 -5 -44 -9 -67 -9h-205z" />
    <glyph glyph-name="bracketleft" unicode="[" horiz-adv-x="470" 
d="M271 -53h131l-17 -102h-350l153 966h350l-16 -102h-131z" />
    <glyph glyph-name="backslash" unicode="\" horiz-adv-x="728" 
d="M710 0h-149l-415 811h148z" />
    <glyph glyph-name="bracketright" unicode="]" horiz-adv-x="470" 
d="M52 -53h131l120 762h-131l16 102h350l-153 -966h-350z" />
    <glyph glyph-name="asciicircum" unicode="^" horiz-adv-x="800" 
d="M397 754h244l93 -542h-208l-48 274h-2l-134 -274h-208z" />
    <glyph glyph-name="underscore" unicode="_" horiz-adv-x="500" 
d="M480 -125h-500l8 50h500z" />
    <glyph glyph-name="quoteleft" unicode="&#x2018;" horiz-adv-x="493" 
d="M354 754h202l-180 -373h-259z" />
    <glyph glyph-name="a" unicode="a" horiz-adv-x="720" 
d="M330 268c-6 -42 8 -78 55 -78c49 0 75 39 82 80c6 41 -17 71 -58 71s-72 -34 -79 -73zM416 0l19 70h-6c-55 -50 -102 -82 -175 -82c-144 0 -201 146 -180 275c21 134 125 280 275 280c64 0 113 -23 143 -75h6l2 63h253l-84 -531h-253z" />
    <glyph glyph-name="b" unicode="b" horiz-adv-x="720" 
d="M419 341c-43 0 -72 -36 -78 -75c-6 -40 11 -76 54 -76c40 0 74 42 79 78c6 37 -16 73 -55 73zM50 0l128 811h258l-35 -224l-32 -127h9c44 49 113 83 173 83c150 0 197 -150 176 -282c-20 -127 -119 -273 -263 -273c-69 0 -124 37 -158 91h-6l-8 -79h-242z" />
    <glyph glyph-name="c" unicode="c" horiz-adv-x="514" 
d="M548 516l-34 -215c-24 23 -51 44 -88 44c-47 0 -86 -31 -94 -79c-7 -42 22 -76 64 -76c40 0 73 20 107 41l-46 -218c-42 -13 -89 -25 -134 -25c-172 0 -280 97 -251 275c25 157 159 280 318 280c54 0 108 -10 158 -27z" />
    <glyph glyph-name="d" unicode="d" horiz-adv-x="720" 
d="M408 341c-43 0 -72 -36 -78 -75c-6 -40 11 -76 54 -76c40 0 74 42 79 78c6 37 -16 73 -55 73zM428 0l18 79h-6c-52 -54 -119 -91 -188 -91c-144 0 -197 146 -177 273c21 132 116 282 266 282c60 0 119 -34 147 -83h9l8 127l35 224h258l-128 -811h-242z" />
    <glyph glyph-name="e" unicode="e" horiz-adv-x="698" 
d="M699 222h-375c-7 -43 -7 -91 47 -91c27 0 50 19 59 44h251c-55 -128 -207 -187 -329 -187c-167 0 -306 86 -277 269c28 176 181 286 350 286c189 0 319 -122 274 -321zM342 332h121c5 36 -15 69 -52 69c-39 0 -64 -32 -69 -69z" />
    <glyph glyph-name="f" unicode="f" horiz-adv-x="430" 
d="M158 522l9 56c24 155 108 241 268 241c38 0 74 -6 111 -12l-33 -205c-12 5 -21 9 -33 9c-44 0 -60 -36 -65 -71l-4 -20l89 11l-33 -207l-82 7l-52 -331h-258l52 331l-71 -7l33 207z" />
    <glyph glyph-name="g" unicode="g" horiz-adv-x="722" 
d="M330 265c-7 -43 16 -75 61 -75c44 0 70 34 77 74c6 40 -12 77 -55 77c-42 0 -76 -34 -83 -76zM751 531l-79 -500c-33 -207 -216 -291 -401 -291c-82 0 -150 14 -222 42l-24 9l85 179c43 -42 113 -65 176 -65c70 0 120 51 136 117l14 54h-7c-35 -58 -109 -88 -170 -88
c-145 0 -205 146 -184 278s126 277 273 277c68 0 115 -32 141 -88h7l5 76h250z" />
    <glyph glyph-name="h" unicode="h" horiz-adv-x="699" 
d="M50 0l128 811h258l-35 -224l-35 -147h4c57 57 113 103 187 103c132 0 163 -100 145 -217l-52 -326h-252l43 274c5 28 6 63 -31 63c-40 0 -53 -30 -59 -63l-43 -274h-258z" />
    <glyph glyph-name="i" unicode="i" horiz-adv-x="392" 
d="M67 0l84 531h258l-84 -531h-258zM326 819c81 0 134 -47 122 -124c-14 -87 -88 -125 -162 -125s-136 38 -122 125c12 77 81 124 162 124z" />
    <glyph glyph-name="j" unicode="j" horiz-adv-x="392" 
d="M32 -219l119 750h258l-119 -750h-258zM326 819c81 0 134 -47 122 -124c-14 -87 -88 -125 -162 -125s-136 38 -122 125c12 77 81 124 162 124z" />
    <glyph glyph-name="k" unicode="k" horiz-adv-x="742" 
d="M52 0l128 811h258l-75 -477h6l28 45l104 152h301l-236 -260l162 -271h-304l-77 195h-6l-31 -195h-258z" />
    <glyph glyph-name="l" unicode="l" horiz-adv-x="373" 
d="M57 0l128 811h258l-128 -811h-258z" />
    <glyph glyph-name="m" unicode="m" horiz-adv-x="1011" 
d="M384 531l-23 -94h8c32 65 103 106 171 106c76 0 123 -41 134 -113h6c42 74 97 113 179 113c127 0 167 -98 149 -213l-52 -330h-250l42 263c5 31 11 71 -27 71c-37 0 -43 -40 -48 -71l-42 -263h-250l42 263c5 31 11 71 -27 71c-37 0 -43 -40 -48 -71l-42 -263h-250l84 531
h244z" />
    <glyph glyph-name="n" unicode="n" horiz-adv-x="703" 
d="M386 531l-23 -85h6c59 58 103 97 186 97c132 0 168 -99 150 -216l-52 -327h-258l41 259c5 31 12 75 -32 75c-43 0 -50 -44 -55 -75l-41 -259h-258l84 531h252z" />
    <glyph glyph-name="o" unicode="o" horiz-adv-x="714" 
d="M443 543c175 0 306 -98 277 -284c-28 -176 -199 -271 -365 -271s-307 95 -279 271c29 186 192 284 367 284zM411 341c-43 0 -78 -35 -84 -78c-7 -42 20 -73 60 -73s77 31 84 73c6 43 -17 78 -60 78z" />
    <glyph glyph-name="p" unicode="p" horiz-adv-x="716" 
d="M417 341c-43 0 -72 -36 -78 -75c-6 -40 11 -76 54 -76c40 0 74 42 79 78c6 37 -16 73 -55 73zM381 531l-21 -84h8c38 61 114 96 181 96c149 0 199 -140 178 -273c-20 -125 -123 -282 -268 -282c-58 0 -123 33 -143 85h-7l-2 -85l-33 -207h-258l119 750h246z" />
    <glyph glyph-name="q" unicode="q" horiz-adv-x="716" 
d="M406 340c-43 0 -72 -36 -78 -75c-6 -40 11 -76 54 -76c40 0 74 42 79 78c6 37 -16 73 -55 73zM749 531l-119 -750h-258l33 207l26 85h-7c-38 -52 -113 -85 -171 -85c-145 0 -198 157 -178 282c21 133 115 273 264 273c67 0 131 -35 151 -96h8l5 84h246z" />
    <glyph glyph-name="r" unicode="r" horiz-adv-x="495" 
d="M573 543l-41 -262c-25 16 -42 29 -75 29c-67 0 -107 -40 -118 -106l-32 -204h-258l84 531h258l-17 -71h6c57 70 106 85 193 83z" />
    <glyph glyph-name="s" unicode="s" horiz-adv-x="533" 
d="M16 47l92 160l14 -10c33 -22 80 -49 124 -49c17 0 40 9 43 29c5 29 -26 30 -47 33c-84 12 -158 47 -142 147c21 133 163 186 277 186c66 0 146 -13 199 -45l-86 -147c-30 24 -70 44 -112 44c-16 0 -38 -5 -41 -24c-4 -26 23 -28 58 -34c90 -15 160 -47 143 -154
c-22 -138 -168 -195 -288 -195c-84 0 -162 26 -234 59z" />
    <glyph glyph-name="t" unicode="t" horiz-adv-x="433" 
d="M455 702l-28 -178l87 4l-33 -203l-85 5l-52 -330h-260l52 330l-64 -5l33 203l62 -4l28 178h260z" />
    <glyph glyph-name="u" unicode="u" horiz-adv-x="697" 
d="M133 531h256l-43 -274c-5 -31 -8 -64 34 -64s49 33 54 64l43 274h256l-47 -300c-27 -168 -185 -243 -339 -243s-288 75 -261 243z" />
    <glyph glyph-name="v" unicode="v" horiz-adv-x="686" 
d="M78 531h277l29 -251h7l24 65l84 186h277l-315 -531h-234z" />
    <glyph glyph-name="w" unicode="w" horiz-adv-x="949" 
d="M69 531h272l14 -295h8l27 88l84 207h169l22 -295h6l27 88l79 207h271l-302 -531h-208l-21 236h-7l-21 -56l-78 -180h-211z" />
    <glyph glyph-name="x" unicode="x" horiz-adv-x="737" 
d="M106 531h296l23 -66l10 -45h5l27 45l42 66h296l-241 -255l172 -276h-303l-30 75l-11 42h-5l-23 -42l-53 -75h-311l267 276z" />
    <glyph glyph-name="y" unicode="y" horiz-adv-x="658" 
d="M62 531h278l26 -208l2 -81h7l26 81l92 208h271l-459 -750h-272l180 272z" />
    <glyph glyph-name="z" unicode="z" horiz-adv-x="605" 
d="M668 501l-195 -234l-65 -67l-1 -6l54 6h147l-32 -200h-560l6 36l194 238l63 60l1 4l-61 -7h-125l32 200h547z" />
    <glyph glyph-name="braceleft" unicode="{" horiz-adv-x="470" 
d="M92 236l20 122c35 17 75 35 84 93l33 207c17 108 101 153 217 153h97l-22 -140h-25c-46 0 -51 -32 -55 -60l-27 -166c-13 -85 -70 -119 -119 -147v-2c39 -28 86 -62 72 -148l-26 -166c-4 -28 -10 -61 36 -61h25l-22 -140h-97c-116 0 -185 46 -168 155l32 206
c10 58 -24 77 -55 94z" />
    <glyph glyph-name="bar" unicode="|" horiz-adv-x="532" 
d="M248 864h157v-1152h-157v1152z" />
    <glyph glyph-name="braceright" unicode="}" horiz-adv-x="470" 
d="M472 358l-20 -122c-35 -17 -75 -36 -85 -94l-32 -206c-17 -109 -102 -155 -218 -155h-97l22 140h25c46 0 52 33 56 61l26 166c14 86 71 120 120 148v2c-39 28 -86 62 -73 147l27 166c4 28 9 60 -37 60h-25l22 140h97c116 0 186 -45 169 -153l-33 -207
c-9 -58 25 -76 56 -93z" />
    <glyph glyph-name="asciitilde" unicode="~" horiz-adv-x="800" 
d="M660 440l89 -128c-27 -40 -134 -163 -209 -163c-49 0 -94 26 -129 57c-32 28 -61 44 -93 44c-24 0 -64 -35 -83 -66l-86 124c26 53 120 144 202 144c41 0 85 -30 120 -54c27 -19 55 -46 95 -46c30 0 72 53 94 88z" />
    <glyph glyph-name="exclamdown" unicode="&#xa1;" horiz-adv-x="462" 
d="M408 296l-82 -515h-264l82 515h264zM325 608c73 0 142 -47 129 -127c-12 -79 -95 -124 -168 -124s-142 45 -130 124c13 80 96 127 169 127z" />
    <glyph glyph-name="cent" unicode="&#xa2;" 
d="M615 657l111 -21l-28 -211c-27 22 -51 40 -90 40c-43 0 -81 -28 -88 -72c-7 -45 19 -76 64 -76c33 0 75 19 104 41l-37 -211c-39 -11 -80 -22 -121 -24l-12 -109h-85l23 109c-143 11 -216 125 -193 268c22 140 138 248 278 266l10 97h84z" />
    <glyph glyph-name="sterling" unicode="&#xa3;" 
d="M347 413l1 57c0 27 0 54 4 82c23 142 149 214 281 214c128 0 215 -60 194 -196l-175 -34c5 33 6 64 -34 64c-34 0 -54 -35 -58 -63c-2 -16 -2 -31 -2 -47c-1 -19 0 -39 -3 -58l-3 -19l151 8l-23 -141l-152 9l-6 -15c-10 -36 -23 -59 -46 -91l31 -9c23 -9 47 -16 74 -16
c36 0 74 16 105 38l52 -137c-69 -38 -158 -74 -231 -74c-33 0 -81 9 -112 18l-56 16c-18 5 -29 7 -48 7c-40 0 -75 -15 -113 -29l-26 -9l-34 154c55 23 109 48 166 54l45 92l-98 -8l23 141z" />
    <glyph glyph-name="fraction" unicode="&#x2044;" horiz-adv-x="127" 
d="M-249 0l636 754h108l-633 -754h-111z" />
    <glyph glyph-name="yen" unicode="&#xa5;" 
d="M576 148l-23 -148h-268l23 148h-203l23 140h203l5 37l-17 37h-180l23 140h94l-115 252h310l53 -197h8c12 24 23 48 36 71l74 126h308l-191 -252h92l-23 -140h-176l-28 -37l-5 -37h198l-23 -140h-198z" />
    <glyph glyph-name="florin" unicode="&#x192;" 
d="M438 535l31 99c33 102 114 196 228 196c49 0 88 -11 130 -30l7 -3l-61 -187c-7 12 -20 21 -35 21c-44 0 -53 -39 -63 -72l-8 -25l81 8l-63 -187l-75 8l-80 -256c-59 -188 -155 -258 -345 -258c-25 0 -51 2 -74 7l66 207l13 -1c23 0 45 4 68 15c35 17 42 44 54 78l67 208
l-70 -8l62 187z" />
    <glyph glyph-name="section" unicode="&#xa7;" 
d="M368 300l195 -95c14 20 25 37 27 50c4 23 -13 30 -29 39l-200 102c-11 -16 -27 -37 -30 -55c-4 -24 19 -32 37 -41zM161 31h180c-8 -46 23 -69 66 -69c32 0 68 13 74 50c6 36 -36 51 -60 62l-108 48c-84 38 -182 78 -164 193c12 75 68 132 138 161c-19 29 -27 61 -21 99
c21 133 163 191 279 191c137 0 235 -69 220 -215h-180c8 41 -16 69 -57 69c-29 0 -59 -15 -64 -47c-6 -38 43 -51 69 -62l112 -49c79 -34 148 -74 133 -179c-13 -82 -56 -116 -127 -157c26 -41 36 -66 28 -120c-23 -146 -160 -208 -290 -208c-150 0 -258 71 -228 233z" />
    <glyph glyph-name="currency" unicode="&#xa4;" 
d="M131 154l80 70c-26 43 -35 103 -25 168s38 131 79 173l-57 71l75 66l60 -70c49 33 119 54 185 54c65 0 124 -21 159 -54l82 70l54 -65l-75 -67c26 -45 39 -110 28 -176c-10 -65 -43 -129 -84 -169l57 -70l-73 -67l-60 68c-48 -36 -115 -56 -181 -56
c-69 0 -129 19 -168 57l-81 -68zM501 516c-73 0 -134 -54 -145 -127c-12 -74 34 -119 106 -119s132 45 144 119c11 73 -32 127 -105 127z" />
    <glyph glyph-name="quotesingle" unicode="'" horiz-adv-x="493" 
d="M396 381h-179l19 373h259z" />
    <glyph glyph-name="quotedblleft" unicode="&#x201c;" horiz-adv-x="788" 
d="M651 754h202l-180 -373h-259zM351 754h202l-180 -373h-259z" />
    <glyph glyph-name="guillemotleft" unicode="&#xab;" horiz-adv-x="572" 
d="M321 104l-106 -65l-123 236l197 228l85 -70l-134 -158zM540 104l-106 -65l-123 236l197 228l85 -70l-134 -158z" />
    <glyph glyph-name="guilsinglleft" unicode="&#x2039;" horiz-adv-x="352" 
d="M320 104l-106 -65l-123 236l197 228l85 -70l-134 -158z" />
    <glyph glyph-name="guilsinglright" unicode="&#x203a;" horiz-adv-x="352" 
d="M150 39l-86 65l137 171l-84 158l107 70l125 -228z" />
    <glyph glyph-name="fi" unicode="&#xfb01;" horiz-adv-x="822" 
d="M497 0l84 531h258l-84 -531h-258zM756 819c81 0 134 -47 122 -124c-14 -87 -88 -125 -162 -125s-136 38 -122 125c12 77 81 124 162 124zM158 522l9 56c24 155 108 241 268 241c38 0 74 -6 111 -12l-33 -205c-12 5 -21 9 -33 9c-44 0 -60 -36 -65 -71l-4 -20l89 11
l-33 -207l-82 7l-52 -331h-258l52 331l-71 -7l33 207z" />
    <glyph glyph-name="fl" unicode="&#xfb02;" horiz-adv-x="803" 
d="M487 0l128 811h258l-128 -811h-258zM158 522l9 56c24 155 108 241 268 241c38 0 74 -6 111 -12l-33 -205c-12 5 -21 9 -33 9c-44 0 -60 -36 -65 -71l-4 -20l89 11l-33 -207l-82 7l-52 -331h-258l52 331l-71 -7l33 207z" />
    <glyph glyph-name="endash" unicode="&#x2013;" horiz-adv-x="500" 
d="M26 165l35 220h500l-35 -220h-500z" />
    <glyph glyph-name="dagger" unicode="&#x2020;" 
d="M278 -151l73 458h-212l31 197h212l39 250h228l-39 -250h212l-31 -197h-212l-73 -458h-228z" />
    <glyph glyph-name="daggerdbl" unicode="&#x2021;" 
d="M278 -151l44 280h-194l27 166h194l18 113h-194l26 166h194l28 180h228l-28 -180h194l-26 -166h-194l-18 -113h194l-27 -166h-194l-44 -280h-228z" />
    <glyph glyph-name="periodcentered" unicode="&#xb7;" horiz-adv-x="416" 
d="M276 430c71 0 121 -59 110 -130c-12 -71 -80 -130 -151 -130s-121 59 -109 130c11 71 79 130 150 130z" />
    <glyph glyph-name="paragraph" unicode="&#xb6;" 
d="M430 754h466l-30 -190h-66l-124 -783h-190l124 783h-54l-124 -783h-190l72 450c-105 11 -196 92 -185 229c13 166 143 294 301 294z" />
    <glyph glyph-name="bullet" unicode="&#x2022;" 
d="M507 566c108 0 174 -85 158 -189c-17 -103 -110 -188 -218 -188s-176 85 -159 188c16 104 111 189 219 189z" />
    <glyph glyph-name="quotesinglbase" unicode="&#x201a;" horiz-adv-x="493" 
d="M232 -166h-201l180 373h259z" />
    <glyph glyph-name="quotedblbase" unicode="&#x201e;" horiz-adv-x="788" 
d="M229 -166h-201l180 373h259zM529 -166h-201l180 373h259z" />
    <glyph glyph-name="quotedblright" unicode="&#x201d;" horiz-adv-x="788" 
d="M315 381h-201l180 373h259zM615 381h-201l180 373h259z" />
    <glyph glyph-name="guillemotright" unicode="&#xbb;" horiz-adv-x="572" 
d="M369 39l-86 65l137 171l-84 158l107 70l125 -228zM150 39l-86 65l137 171l-84 158l107 70l125 -228z" />
    <glyph glyph-name="ellipsis" unicode="&#x2026;" horiz-adv-x="1000" 
d="M871 239c73 0 141 -47 129 -127c-13 -79 -96 -124 -169 -124s-142 45 -129 124c12 80 96 127 169 127zM538 239c73 0 141 -47 129 -127c-13 -79 -96 -124 -169 -124s-142 45 -129 124c12 80 96 127 169 127zM205 239c73 0 141 -47 129 -127c-13 -79 -96 -124 -169 -124
s-142 45 -129 124c12 80 96 127 169 127z" />
    <glyph glyph-name="perthousand" unicode="&#x2030;" horiz-adv-x="1685" 
d="M946 404c133 0 230 -64 207 -206c-22 -143 -148 -210 -273 -210s-229 67 -207 210c23 142 140 206 273 206zM922 254c-33 0 -52 -28 -57 -56c-4 -29 7 -53 40 -53s52 24 56 53c5 28 -6 56 -39 56zM384 766c133 0 230 -64 208 -206c-23 -143 -149 -210 -274 -210
s-229 67 -206 210c22 142 139 206 272 206zM361 616c-33 0 -53 -28 -57 -56c-5 -29 6 -53 39 -53s52 24 57 53c4 28 -6 56 -39 56zM1486 404c133 0 230 -64 207 -206c-22 -143 -148 -210 -273 -210s-229 67 -207 210c23 142 140 206 273 206zM1462 254
c-33 0 -52 -28 -57 -56c-4 -29 7 -53 40 -53s52 24 56 53c5 28 -6 56 -39 56zM249 0l640 776h137l-636 -776h-141z" />
    <glyph glyph-name="questiondown" unicode="&#xbf;" horiz-adv-x="697" 
d="M478 299l-30 -194c-17 5 -33 10 -50 10c-48 0 -93 -28 -101 -79c-5 -29 10 -50 40 -50c33 0 56 33 62 64h257c-31 -165 -187 -271 -345 -271c-167 0 -289 96 -261 273c29 179 187 256 348 256c27 0 54 -3 80 -9zM439 608c73 0 142 -47 129 -127
c-12 -79 -95 -124 -168 -124s-142 45 -130 124c13 80 96 127 169 127z" />
    <glyph glyph-name="grave" unicode="`" horiz-adv-x="420" 
d="M193 703l138 83l105 -165l-100 -62z" />
    <glyph glyph-name="acute" unicode="&#xb4;" horiz-adv-x="420" 
d="M337 786l112 -83l-187 -144l-82 62z" />
    <glyph glyph-name="circumflex" unicode="&#x2c6;" horiz-adv-x="600" 
d="M240 569l-32 102l218 115l179 -115l-63 -102l-138 73z" />
    <glyph glyph-name="tilde" unicode="&#x2dc;" horiz-adv-x="560" 
d="M255 580l-76 58c38 50 94 103 157 103c27 0 43 -9 64 -22c14 -9 32 -23 52 -23c26 0 45 27 57 46l83 -50c-34 -51 -88 -111 -152 -111c-21 0 -36 5 -54 13l-42 20c-8 4 -23 12 -34 12c-25 0 -43 -27 -55 -46z" />
    <glyph glyph-name="macron" unicode="&#xaf;" horiz-adv-x="600" 
d="M219 608l16 98h355l-16 -98h-355z" />
    <glyph glyph-name="breve" unicode="&#x2d8;" horiz-adv-x="560" 
d="M212 756h78c9 -48 56 -60 100 -60s95 12 120 60h79c-22 -97 -118 -174 -217 -174s-168 71 -160 174z" />
    <glyph glyph-name="dotaccent" unicode="&#x2d9;" horiz-adv-x="420" 
d="M328 746c46 0 77 -37 70 -83s-50 -83 -96 -83s-77 37 -70 83s50 83 96 83z" />
    <glyph glyph-name="dieresis" unicode="&#xa8;" horiz-adv-x="620" 
d="M307 746c46 0 77 -37 70 -83s-50 -83 -96 -83s-77 37 -70 83s50 83 96 83zM550 746c46 0 77 -37 70 -83s-50 -83 -96 -83s-77 37 -70 83s50 83 96 83z" />
    <glyph glyph-name="ring" unicode="&#x2da;" horiz-adv-x="480" 
d="M367 799c75 0 149 -30 135 -116c-14 -87 -99 -114 -172 -114s-150 27 -136 114c14 86 98 116 173 116zM355 727c-28 0 -61 -11 -66 -43s25 -43 53 -43s60 11 65 43s-24 43 -52 43z" />
    <glyph glyph-name="cedilla" unicode="&#xb8;" horiz-adv-x="420" 
d="M145 -249l-88 88l183 146l83 -82z" />
    <glyph glyph-name="hungarumlaut" unicode="&#x2dd;" horiz-adv-x="620" 
d="M279 778h135l-89 -211h-102zM475 778h135l-89 -211h-102z" />
    <glyph glyph-name="ogonek" unicode="&#x2db;" horiz-adv-x="420" 
d="M197 -15h75l-1 -2c-23 -11 -74 -39 -79 -69c-4 -29 21 -41 47 -41c24 0 39 9 58 26l2 -2l-42 -96c-23 -15 -54 -24 -80 -24c-54 0 -102 35 -93 93c9 55 65 93 113 115z" />
    <glyph glyph-name="caron" unicode="&#x2c7;" horiz-adv-x="600" 
d="M273 784l140 -71l162 71l32 -100l-217 -115l-181 115z" />
    <glyph glyph-name="emdash" unicode="&#x2014;" horiz-adv-x="1000" 
d="M156 165l35 220h740l-35 -220h-740z" />
    <glyph glyph-name="AE" unicode="&#xc6;" horiz-adv-x="1060" 
d="M398 273h112l-17 154c-3 25 -1 50 1 75h-8c-8 -30 -16 -58 -28 -87zM539 0l-11 96h-205l-39 -96h-288l382 754h530l38 -206h-225l12 -72h226l38 -196h-223l14 -74h226l39 -206h-514z" />
    <glyph glyph-name="ordfeminine" unicode="&#xaa;" horiz-adv-x="420" 
d="M265 599c-4 -23 9 -44 35 -44c27 0 49 22 53 45c4 25 -11 42 -38 42c-26 0 -46 -20 -50 -43zM537 757l-50 -317h-164l11 40h-4c-35 -30 -66 -49 -113 -49c-94 0 -132 88 -120 165c13 80 80 170 178 170c41 0 74 -16 93 -47h4l1 38h164z" />
    <glyph glyph-name="Lslash" unicode="&#x141;" horiz-adv-x="649" 
d="M128 0l42 264l-102 -70l26 163l101 68l52 329h274l-23 -149l134 91l-26 -163l-134 -91l-32 -200h228l-38 -242h-502z" />
    <glyph glyph-name="Oslash" unicode="&#xd8;" horiz-adv-x="904" 
d="M373 305l221 199c-16 9 -36 14 -60 14c-87 0 -152 -67 -164 -147c-4 -24 -3 -46 3 -66zM645 446l-225 -203c19 -11 42 -17 68 -17c83 0 150 59 164 145c4 27 2 52 -7 75zM25 -8l130 117c-53 65 -78 155 -61 266c38 237 250 391 479 391c92 0 174 -25 235 -69l138 123
l53 -54l-135 -122c55 -67 82 -159 64 -269c-38 -242 -248 -387 -478 -387c-93 0 -174 23 -237 68l-135 -122z" />
    <glyph glyph-name="OE" unicode="&#x152;" horiz-adv-x="1186" 
d="M380 373c-12 -75 40 -137 116 -137c88 0 147 61 161 146c13 86 -28 141 -116 141c-84 0 -148 -70 -161 -150zM615 0l15 95h-2c-61 -72 -163 -107 -249 -107c-208 0 -313 193 -282 388c30 195 198 390 407 390c89 0 178 -38 212 -117h2l16 105h506l-32 -206h-233l-12 -72
h213l-31 -196h-213l-11 -74h242l-33 -206h-515z" />
    <glyph glyph-name="ordmasculine" unicode="&#xba;" horiz-adv-x="420" 
d="M331 766c114 0 200 -59 182 -171c-17 -106 -127 -164 -235 -164s-200 58 -183 164c18 112 122 171 236 171zM312 642c-28 0 -50 -20 -55 -46c-3 -24 15 -41 41 -41s50 17 53 41c5 26 -11 46 -39 46z" />
    <glyph glyph-name="ae" unicode="&#xe6;" horiz-adv-x="1140" 
d="M784 334h121c5 35 -15 68 -52 68c-39 0 -63 -32 -69 -68zM379 122c37 0 126 12 134 60c6 40 -85 47 -109 47c-35 0 -100 -6 -107 -54c-8 -46 46 -53 82 -53zM1141 224h-375c-6 -43 -7 -91 47 -91c27 0 50 19 59 44h251c-54 -127 -207 -189 -329 -189
c-91 0 -188 29 -238 90c-82 -58 -179 -90 -272 -90c-113 0 -246 50 -225 183c22 138 148 183 268 183c54 0 104 -10 152 -26c18 77 -46 99 -110 99c-85 0 -171 -24 -255 -51l20 127c85 22 171 40 256 40c97 0 173 -14 225 -93c79 63 158 93 252 93c189 0 319 -121 274 -319z
" />
    <glyph glyph-name="dotlessi" unicode="&#x131;" horiz-adv-x="392" 
d="M67 0l84 531h258l-84 -531h-258z" />
    <glyph glyph-name="lslash" unicode="&#x142;" horiz-adv-x="489" 
d="M113 0l47 299l-91 -61l21 134l91 60l60 379h258l-35 -223l97 63l-21 -134l-97 -64l-72 -453h-258z" />
    <glyph glyph-name="oslash" unicode="&#xf8;" horiz-adv-x="714" 
d="M39 -10l90 81c-43 44 -66 108 -53 188c29 186 192 284 367 284c65 0 125 -14 171 -40l97 87l43 -48l-89 -79c47 -47 69 -116 55 -204c-28 -176 -199 -271 -365 -271c-65 0 -126 14 -173 42l-99 -89zM411 341c-43 0 -78 -35 -84 -78c-7 -42 20 -73 60 -73s77 31 84 73
c6 43 -17 78 -60 78z" />
    <glyph glyph-name="oe" unicode="&#x153;" horiz-adv-x="1056" 
d="M700 334h121c5 35 -15 68 -52 68c-39 0 -63 -32 -69 -68zM1057 224h-375c-6 -43 -7 -91 47 -91c27 0 50 19 59 44h251c-54 -127 -207 -189 -329 -189c-69 4 -140 24 -178 73c-64 -46 -151 -73 -223 -73c-151 0 -264 115 -239 271c27 171 179 284 346 284
c62 0 151 -25 185 -74c61 51 136 74 190 74c181 0 311 -121 266 -319zM405 340c-43 0 -78 -34 -84 -77c-7 -42 20 -72 60 -72s77 30 84 72c6 43 -17 77 -60 77z" />
    <glyph glyph-name="germandbls" unicode="&#xdf;" horiz-adv-x="769" 
d="M389 486l-77 -486h-258l82 517c32 204 126 302 357 302c134 0 271 -59 248 -206c-11 -71 -29 -115 -99 -155c94 -33 116 -125 101 -220c-26 -165 -161 -238 -324 -238h-43l23 144c84 9 89 92 97 143c7 43 -13 73 -63 73l23 142c35 0 70 18 76 53c6 37 -14 50 -56 50
c-72 0 -80 -72 -87 -119z" />
    <glyph glyph-name="onesuperior" unicode="&#xb9;" horiz-adv-x="500" 
d="M220 608l23 143l253 7l-72 -452h-177l49 307z" />
    <glyph glyph-name="logicalnot" unicode="&#xac;" horiz-adv-x="800" 
d="M149 312l32 200h600l-59 -371h-200l27 171h-400z" />
    <glyph glyph-name="mu" unicode="&#xb5;" horiz-adv-x="697" 
d="M133 528h256l-44 -274c-5 -31 -8 -64 34 -64s49 33 54 64l44 274h256l-48 -300c-26 -168 -184 -243 -308 -243c-45 0 -79 11 -101 19l-6 -223h-256z" />
    <glyph glyph-name="trademark" unicode="&#x2122;" horiz-adv-x="950" 
d="M503 754l-15 -98h-112l-50 -316h-120l50 316h-111l15 98h343zM1028 754l-65 -414h-98l50 316h-2l-163 -316h-60l-63 316h-2l-50 -316h-98l65 414h158l47 -239h2l121 239h158z" />
    <glyph glyph-name="Eth" unicode="&#xd0;" horiz-adv-x="827" 
d="M64 0l51 320h-60l17 107h60l51 327h279c253 0 430 -111 386 -388c-36 -224 -216 -366 -437 -366h-347zM420 518l-14 -91h70l-17 -107h-70l-15 -94h17c91 0 167 42 183 141c17 106 -37 151 -137 151h-17z" />
    <glyph glyph-name="onehalf" unicode="&#xbd;" horiz-adv-x="1248" 
d="M196 608l23 143l253 7l-72 -452h-177l49 307zM661 0l222 161c33 25 121 88 128 129c3 20 -12 36 -34 36c-38 0 -48 -30 -53 -57h-174c34 132 106 191 254 191c102 0 201 -55 185 -160c-15 -91 -110 -147 -200 -172l-1 -5l86 11l96 6l-22 -140h-487zM258 0l636 754h108
l-633 -754h-111z" />
    <glyph glyph-name="plusminus" unicode="&#xb1;" horiz-adv-x="800" 
d="M388 556l16 101h200l-16 -101h200l-32 -200h-200l-16 -101h-200l16 101h-200l32 200h200zM100 0l32 200h600l-32 -200h-600z" />
    <glyph glyph-name="Thorn" unicode="&#xde;" horiz-adv-x="728" 
d="M397 448l-21 -131h27c48 0 101 8 111 69c9 59 -46 62 -91 62h-26zM445 754l-15 -100h83c176 0 291 -90 262 -277c-25 -154 -136 -250 -289 -250h-140l-20 -127h-264l119 754h264z" />
    <glyph glyph-name="onequarter" unicode="&#xbc;" horiz-adv-x="1248" 
d="M945 279l-74 -72l-1 -2l87 4l11 68c2 12 7 25 14 37l-4 2c-9 -13 -21 -26 -33 -37zM1095 91l-9 -91h-169l21 91l-249 -5l18 119l240 247h211l-39 -243l63 4l-20 -127zM285 0l636 754h109l-633 -754h-112zM196 608l23 143l253 7l-72 -452h-177l49 307z" />
    <glyph glyph-name="divide" unicode="&#xf7;" horiz-adv-x="800" 
d="M132 200l31 200h600l-31 -200h-600zM526 693c71 0 120 -59 109 -130s-79 -130 -150 -130s-121 59 -110 130s80 130 151 130zM442 167c71 0 121 -59 110 -130s-80 -130 -151 -130s-120 59 -109 130s79 130 150 130z" />
    <glyph glyph-name="brokenbar" unicode="&#xa6;" horiz-adv-x="532" 
d="M248 777h157v-403h-157v403zM248 201h157v-402h-157v402z" />
    <glyph glyph-name="degree" unicode="&#xb0;" horiz-adv-x="500" 
d="M368 754c94 0 162 -78 147 -174c-15 -94 -107 -171 -201 -171c-96 0 -159 77 -144 171c12 96 102 174 198 174zM353 656c-41 0 -79 -34 -85 -74c-6 -41 20 -75 62 -75s81 34 87 75c7 40 -21 74 -64 74z" />
    <glyph glyph-name="thorn" unicode="&#xfe;" horiz-adv-x="716" 
d="M417 341c-43 0 -72 -36 -78 -75c-6 -40 11 -76 54 -76c40 0 74 42 79 78c6 37 -16 73 -55 73zM16 -219l163 1030h258l-37 -237l-34 -127h9c31 61 107 96 174 96c149 0 199 -140 178 -273c-20 -125 -123 -282 -268 -282c-58 0 -123 33 -143 85h-7l-2 -85l-33 -207h-258z
" />
    <glyph glyph-name="threequarters" unicode="&#xbe;" horiz-adv-x="1248" 
d="M945 279l-74 -72l-1 -2l87 4l11 68c2 12 7 25 14 37l-4 2c-9 -13 -21 -26 -33 -37zM1095 91l-9 -91h-169l21 91l-249 -5l18 119l240 247h211l-39 -243l63 4l-20 -127zM343 0l636 754h109l-633 -754h-112zM174 465h179c-6 -27 13 -51 43 -51c24 0 50 18 54 41
s-14 42 -38 42c-8 0 -16 -1 -25 -2l15 94l14 -1c20 -2 39 14 42 32c3 19 -10 30 -29 30c-20 0 -36 -17 -37 -35h-176c29 114 124 151 236 151c83 0 197 -35 182 -130c-6 -37 -35 -72 -74 -87l-1 -4c49 -12 73 -54 65 -102c-17 -110 -148 -144 -245 -144
c-119 0 -220 42 -205 166z" />
    <glyph glyph-name="twosuperior" unicode="&#xb2;" horiz-adv-x="500" 
d="M55 306l222 161c34 25 122 88 128 129c4 20 -12 36 -34 36c-38 0 -48 -30 -53 -57h-174c34 132 106 191 254 191c102 0 202 -55 185 -160c-14 -91 -109 -147 -199 -172l-1 -5l86 11l96 6l-23 -140h-487z" />
    <glyph glyph-name="registered" unicode="&#xae;" horiz-adv-x="800" 
d="M398 -15c-218 0 -364 174 -329 391c34 216 234 390 452 390c217 0 364 -174 330 -390c-35 -217 -236 -391 -453 -391zM414 87c167 0 307 115 335 289c27 174 -77 288 -244 288c-170 0 -307 -114 -334 -288c-28 -174 73 -289 243 -289zM538 345l71 -173h-101l-63 173h-66
l-28 -173h-86l65 409h198c87 0 134 -29 119 -125c-11 -70 -57 -106 -109 -111zM391 423h93c43 0 80 0 87 44c6 36 -31 36 -74 36h-93z" />
    <glyph glyph-name="minus" unicode="&#x2212;" horiz-adv-x="800" 
d="M132 200l31 200h600l-31 -200h-600z" />
    <glyph glyph-name="eth" unicode="&#xf0;" horiz-adv-x="714" 
d="M247 726l176 96c42 -25 58 -36 93 -64l134 63l51 -64l-120 -57c166 -163 160 -306 147 -389c-35 -222 -216 -323 -376 -323c-139 0 -306 79 -275 276c28 175 181 265 316 265c42 0 68 -8 83 -12c-28 43 -62 77 -82 96l-142 -67l-50 64l126 59c-26 21 -52 39 -81 57z
M411 341c-43 0 -78 -35 -84 -78c-7 -42 20 -73 60 -73s77 31 84 73c6 43 -17 78 -60 78z" />
    <glyph glyph-name="multiply" unicode="&#xd7;" horiz-adv-x="800" 
d="M307 300l-134 159l164 141l133 -159l184 159l119 -141l-183 -159l132 -159l-163 -141l-134 159l-183 -159l-120 141z" />
    <glyph glyph-name="threesuperior" unicode="&#xb3;" horiz-adv-x="500" 
d="M97 465h179c-6 -27 13 -51 43 -51c24 0 50 18 54 41s-14 42 -38 42c-8 0 -16 -1 -25 -2l15 94l14 -1c20 -2 39 14 42 32c3 19 -10 30 -29 30c-20 0 -36 -17 -37 -35h-176c29 114 124 151 236 151c83 0 197 -35 182 -130c-6 -37 -35 -72 -74 -87l-1 -4
c49 -12 73 -54 65 -102c-17 -110 -148 -144 -245 -144c-119 0 -220 42 -205 166z" />
    <glyph glyph-name="copyright" unicode="&#xa9;" horiz-adv-x="800" 
d="M398 -15c-218 0 -364 174 -329 391c34 216 234 390 452 390c217 0 364 -174 330 -390c-35 -217 -236 -391 -453 -391zM414 87c167 0 307 115 335 289c27 174 -77 288 -244 288c-170 0 -307 -114 -334 -288c-28 -174 73 -289 243 -289zM671 457h-93c0 48 -33 70 -82 70
c-77 0 -121 -68 -134 -146c-11 -74 16 -149 91 -149c47 0 91 26 101 74h93c-26 -95 -116 -152 -207 -152c-130 0 -200 99 -180 225c21 130 117 226 250 226c94 0 159 -56 161 -148z" />
    <glyph glyph-name="Aacute" unicode="&#xc1;" horiz-adv-x="823" 
d="M321 94l-37 -94h-290l381 754h303l150 -754h-290l-10 94h-207zM398 273h110l-11 133c-3 32 -2 65 -2 97h-10zM575 1009l112 -83l-188 -144l-81 62z" />
    <glyph glyph-name="Acircumflex" unicode="&#xc2;" horiz-adv-x="823" 
d="M321 94l-37 -94h-290l381 754h303l150 -754h-290l-10 94h-207zM398 273h110l-11 133c-3 32 -2 65 -2 97h-10zM387 792l-31 102l218 115l179 -115l-64 -102l-138 73z" />
    <glyph glyph-name="Adieresis" unicode="&#xc4;" horiz-adv-x="823" 
d="M321 94l-37 -94h-290l381 754h303l150 -754h-290l-10 94h-207zM398 273h110l-11 133c-3 32 -2 65 -2 97h-10zM444 969c46 0 78 -37 70 -83c-7 -46 -50 -83 -96 -83s-77 37 -70 83c8 46 50 83 96 83zM687 969c46 0 78 -37 70 -83c-7 -46 -50 -83 -96 -83s-77 37 -70 83
c8 46 50 83 96 83z" />
    <glyph glyph-name="Agrave" unicode="&#xc0;" horiz-adv-x="823" 
d="M321 94l-37 -94h-290l381 754h303l150 -754h-290l-10 94h-207zM398 273h110l-11 133c-3 32 -2 65 -2 97h-10zM431 926l138 83l105 -165l-101 -62z" />
    <glyph glyph-name="Aring" unicode="&#xc5;" horiz-adv-x="823" 
d="M321 94l-37 -94h-290l381 754h303l150 -754h-290l-10 94h-207zM398 273h110l-11 133c-3 32 -2 65 -2 97h-10zM570 999c75 0 149 -30 136 -116c-14 -87 -99 -114 -172 -114s-150 27 -136 114c13 86 97 116 172 116zM559 927c-28 0 -61 -11 -66 -43s24 -43 52 -43
s61 11 66 43s-24 43 -52 43z" />
    <glyph glyph-name="Atilde" unicode="&#xc3;" horiz-adv-x="823" 
d="M321 94l-37 -94h-290l381 754h303l150 -754h-290l-10 94h-207zM398 273h110l-11 133c-3 32 -2 65 -2 97h-10zM422 803l-76 58c38 50 95 103 158 103c27 0 42 -9 63 -22c15 -9 33 -23 53 -23c26 0 44 27 56 46l83 -50c-34 -51 -88 -111 -152 -111c-21 0 -36 5 -54 13
l-41 20c-9 4 -24 12 -35 12c-25 0 -43 -27 -55 -46z" />
    <glyph glyph-name="Ccedilla" unicode="&#xc7;" horiz-adv-x="656" 
d="M729 735l-37 -287c-38 41 -87 76 -149 76c-82 0 -159 -65 -172 -147c-13 -83 47 -147 129 -147c63 0 118 27 169 70l-53 -282c-47 -21 -151 -30 -200 -30c-215 0 -356 167 -322 382c34 220 235 396 456 396c62 0 125 -11 179 -31zM263 -249l-88 88l183 146l83 -82z" />
    <glyph glyph-name="Eacute" unicode="&#xc9;" horiz-adv-x="624" 
d="M58 0l119 754h507l-32 -206h-231l-12 -72h211l-31 -196h-211l-11 -74h239l-33 -206h-515zM475 1009l112 -83l-188 -144l-81 62z" />
    <glyph glyph-name="Ecircumflex" unicode="&#xca;" horiz-adv-x="624" 
d="M58 0l119 754h507l-32 -206h-231l-12 -72h211l-31 -196h-211l-11 -74h239l-33 -206h-515zM287 792l-31 102l218 115l179 -115l-64 -102l-138 73z" />
    <glyph glyph-name="Edieresis" unicode="&#xcb;" horiz-adv-x="624" 
d="M58 0l119 754h507l-32 -206h-231l-12 -72h211l-31 -196h-211l-11 -74h239l-33 -206h-515zM344 969c46 0 78 -37 70 -83c-7 -46 -50 -83 -96 -83s-77 37 -70 83c8 46 50 83 96 83zM587 969c46 0 78 -37 70 -83c-7 -46 -50 -83 -96 -83s-77 37 -70 83c8 46 50 83 96 83z
" />
    <glyph glyph-name="Egrave" unicode="&#xc8;" horiz-adv-x="624" 
d="M58 0l119 754h507l-32 -206h-231l-12 -72h211l-31 -196h-211l-11 -74h239l-33 -206h-515zM331 926l138 83l105 -165l-101 -62z" />
    <glyph glyph-name="Iacute" unicode="&#xcd;" horiz-adv-x="403" 
d="M64 0l119 754h274l-119 -754h-274zM380 1009l112 -83l-188 -144l-81 62z" />
    <glyph glyph-name="Icircumflex" unicode="&#xce;" horiz-adv-x="403" 
d="M64 0l119 754h274l-119 -754h-274zM177 792l-31 102l218 115l179 -115l-64 -102l-138 73z" />
    <glyph glyph-name="Idieresis" unicode="&#xcf;" horiz-adv-x="403" 
d="M64 0l119 754h274l-119 -754h-274zM234 969c46 0 78 -37 70 -83c-7 -46 -50 -83 -96 -83s-77 37 -70 83c8 46 50 83 96 83zM477 969c46 0 78 -37 70 -83c-7 -46 -50 -83 -96 -83s-77 37 -70 83c8 46 50 83 96 83z" />
    <glyph glyph-name="Igrave" unicode="&#xcc;" horiz-adv-x="403" 
d="M64 0l119 754h274l-119 -754h-274zM205 926l138 83l105 -165l-101 -62z" />
    <glyph glyph-name="Ntilde" unicode="&#xd1;" horiz-adv-x="872" 
d="M58 0l119 754h263l180 -418h8c-1 63 -3 128 8 192l35 226h262l-119 -754h-262l-178 396h-8c0 -52 1 -101 -7 -151l-39 -245h-262zM446 803l-76 58c38 50 95 103 158 103c27 0 42 -9 63 -22c15 -9 33 -23 53 -23c26 0 44 27 56 46l83 -50c-34 -51 -88 -111 -152 -111
c-21 0 -36 5 -54 13l-41 20c-9 4 -24 12 -35 12c-25 0 -43 -27 -55 -46z" />
    <glyph glyph-name="Oacute" unicode="&#xd3;" horiz-adv-x="904" 
d="M573 766c229 0 393 -154 355 -391c-38 -242 -248 -387 -478 -387s-394 145 -356 387c38 237 250 391 479 391zM534 518c-87 0 -152 -67 -164 -147c-14 -86 35 -145 118 -145s150 59 164 145c12 80 -31 147 -118 147zM615 1009l112 -83l-188 -144l-81 62z" />
    <glyph glyph-name="Ocircumflex" unicode="&#xd4;" horiz-adv-x="904" 
d="M573 766c229 0 393 -154 355 -391c-38 -242 -248 -387 -478 -387s-394 145 -356 387c38 237 250 391 479 391zM534 518c-87 0 -152 -67 -164 -147c-14 -86 35 -145 118 -145s150 59 164 145c12 80 -31 147 -118 147zM427 792l-31 102l218 115l179 -115l-64 -102l-138 73z
" />
    <glyph glyph-name="Odieresis" unicode="&#xd6;" horiz-adv-x="904" 
d="M573 766c229 0 393 -154 355 -391c-38 -242 -248 -387 -478 -387s-394 145 -356 387c38 237 250 391 479 391zM534 518c-87 0 -152 -67 -164 -147c-14 -86 35 -145 118 -145s150 59 164 145c12 80 -31 147 -118 147zM484 969c46 0 78 -37 70 -83c-7 -46 -50 -83 -96 -83
s-77 37 -70 83c8 46 50 83 96 83zM727 969c46 0 78 -37 70 -83c-7 -46 -50 -83 -96 -83s-77 37 -70 83c8 46 50 83 96 83z" />
    <glyph glyph-name="Ograve" unicode="&#xd2;" horiz-adv-x="904" 
d="M573 766c229 0 393 -154 355 -391c-38 -242 -248 -387 -478 -387s-394 145 -356 387c38 237 250 391 479 391zM534 518c-87 0 -152 -67 -164 -147c-14 -86 35 -145 118 -145s150 59 164 145c12 80 -31 147 -118 147zM471 926l138 83l105 -165l-101 -62z" />
    <glyph glyph-name="Otilde" unicode="&#xd5;" horiz-adv-x="904" 
d="M573 766c229 0 393 -154 355 -391c-38 -242 -248 -387 -478 -387s-394 145 -356 387c38 237 250 391 479 391zM534 518c-87 0 -152 -67 -164 -147c-14 -86 35 -145 118 -145s150 59 164 145c12 80 -31 147 -118 147zM462 803l-76 58c38 50 95 103 158 103
c27 0 42 -9 63 -22c15 -9 33 -23 53 -23c26 0 44 27 56 46l83 -50c-34 -51 -88 -111 -152 -111c-21 0 -36 5 -54 13l-41 20c-9 4 -24 12 -35 12c-25 0 -43 -27 -55 -46z" />
    <glyph glyph-name="Scaron" unicode="&#x160;" horiz-adv-x="663" 
d="M32 57l118 213l12 -11c43 -38 97 -69 160 -69c27 0 72 11 77 45c6 34 -30 37 -54 42l-54 10c-104 19 -184 82 -165 200c28 179 207 279 371 279c86 0 162 -21 229 -66l-105 -193c-42 32 -91 57 -150 57c-24 0 -60 -9 -65 -40c-4 -28 29 -32 49 -37l60 -14
c112 -26 186 -88 166 -216c-29 -180 -207 -269 -370 -269c-95 0 -201 26 -279 69zM340 1007l140 -71l162 71l33 -100l-218 -115l-180 115z" />
    <glyph glyph-name="Uacute" unicode="&#xda;" horiz-adv-x="815" 
d="M601 754h274l-70 -446c-35 -220 -189 -320 -400 -320s-333 100 -298 320l70 446h274l-66 -420c-9 -59 -16 -111 57 -111s84 52 93 111zM591 1009l112 -83l-188 -144l-81 62z" />
    <glyph glyph-name="Ucircumflex" unicode="&#xdb;" horiz-adv-x="815" 
d="M601 754h274l-70 -446c-35 -220 -189 -320 -400 -320s-333 100 -298 320l70 446h274l-66 -420c-9 -59 -16 -111 57 -111s84 52 93 111zM383 792l-31 102l218 115l179 -115l-64 -102l-138 73z" />
    <glyph glyph-name="Udieresis" unicode="&#xdc;" horiz-adv-x="815" 
d="M601 754h274l-70 -446c-35 -220 -189 -320 -400 -320s-333 100 -298 320l70 446h274l-66 -420c-9 -59 -16 -111 57 -111s84 52 93 111zM440 969c46 0 78 -37 70 -83c-7 -46 -50 -83 -96 -83s-77 37 -70 83c8 46 50 83 96 83zM683 969c46 0 78 -37 70 -83
c-7 -46 -50 -83 -96 -83s-77 37 -70 83c8 46 50 83 96 83z" />
    <glyph glyph-name="Ugrave" unicode="&#xd9;" horiz-adv-x="815" 
d="M601 754h274l-70 -446c-35 -220 -189 -320 -400 -320s-333 100 -298 320l70 446h274l-66 -420c-9 -59 -16 -111 57 -111s84 52 93 111zM407 926l138 83l105 -165l-101 -62z" />
    <glyph glyph-name="Yacute" unicode="&#xdd;" horiz-adv-x="773" 
d="M111 754h310l53 -197h8c12 24 23 48 36 71l74 126h308l-326 -429l-51 -325h-268l51 325zM570 1009l112 -83l-188 -144l-81 62z" />
    <glyph glyph-name="Ydieresis" unicode="&#x178;" horiz-adv-x="773" 
d="M111 754h310l53 -197h8c12 24 23 48 36 71l74 126h308l-326 -429l-51 -325h-268l51 325zM429 969c46 0 78 -37 70 -83c-7 -46 -50 -83 -96 -83s-77 37 -70 83c8 46 50 83 96 83zM672 969c46 0 78 -37 70 -83c-7 -46 -50 -83 -96 -83s-77 37 -70 83c8 46 50 83 96 83z" />
    <glyph glyph-name="Zcaron" unicode="&#x17d;" horiz-adv-x="771" 
d="M186 754h702l-410 -521l2 -4c22 2 44 4 65 4h228l-37 -233h-734l342 441c25 33 53 61 81 91l-3 3c-22 -5 -44 -9 -67 -9h-205zM409 1007l140 -71l162 71l33 -100l-218 -115l-180 115z" />
    <glyph glyph-name="aacute" unicode="&#xe1;" horiz-adv-x="720" 
d="M330 268c-6 -42 8 -78 55 -78c49 0 75 39 82 80c6 41 -17 71 -58 71s-72 -34 -79 -73zM416 0l19 70h-6c-55 -50 -102 -82 -175 -82c-144 0 -201 146 -180 275c21 134 125 280 275 280c64 0 113 -23 143 -75h6l2 63h253l-84 -531h-253zM507 786l112 -83l-187 -144l-82 62z
" />
    <glyph glyph-name="acircumflex" unicode="&#xe2;" horiz-adv-x="720" 
d="M330 268c-6 -42 8 -78 55 -78c49 0 75 39 82 80c6 41 -17 71 -58 71s-72 -34 -79 -73zM416 0l19 70h-6c-55 -50 -102 -82 -175 -82c-144 0 -201 146 -180 275c21 134 125 280 275 280c64 0 113 -23 143 -75h6l2 63h253l-84 -531h-253zM310 569l-32 102l218 115l179 -115
l-63 -102l-138 73z" />
    <glyph glyph-name="adieresis" unicode="&#xe4;" horiz-adv-x="720" 
d="M416 0l19 70h-6c-55 -50 -102 -82 -175 -82c-144 0 -201 146 -180 275c21 134 125 280 275 280c64 0 113 -23 143 -75h6l2 63h253l-84 -531h-253zM330 268c-6 -42 8 -78 55 -78c49 0 75 39 82 80c6 41 -17 71 -58 71s-72 -34 -79 -73zM612 746c46 0 77 -37 70 -83
s-50 -83 -96 -83s-77 37 -70 83s50 83 96 83zM369 746c46 0 77 -37 70 -83s-50 -83 -96 -83s-77 37 -70 83s50 83 96 83z" />
    <glyph glyph-name="agrave" unicode="&#xe0;" horiz-adv-x="720" 
d="M330 268c-6 -42 8 -78 55 -78c49 0 75 39 82 80c6 41 -17 71 -58 71s-72 -34 -79 -73zM416 0l19 70h-6c-55 -50 -102 -82 -175 -82c-144 0 -201 146 -180 275c21 134 125 280 275 280c64 0 113 -23 143 -75h6l2 63h253l-84 -531h-253zM343 703l138 83l105 -165l-100 -62z
" />
    <glyph glyph-name="aring" unicode="&#xe5;" horiz-adv-x="720" 
d="M330 268c-6 -42 8 -78 55 -78c49 0 75 39 82 80c6 41 -17 71 -58 71s-72 -34 -79 -73zM416 0l19 70h-6c-55 -50 -102 -82 -175 -82c-144 0 -201 146 -180 275c21 134 125 280 275 280c64 0 113 -23 143 -75h6l2 63h253l-84 -531h-253zM499 799c75 0 149 -30 135 -116
c-14 -87 -99 -114 -172 -114s-150 27 -136 114c14 86 98 116 173 116zM487 727c-28 0 -61 -11 -66 -43s25 -43 53 -43s60 11 65 43s-24 43 -52 43z" />
    <glyph glyph-name="atilde" unicode="&#xe3;" horiz-adv-x="720" 
d="M330 268c-6 -42 8 -78 55 -78c49 0 75 39 82 80c6 41 -17 71 -58 71s-72 -34 -79 -73zM416 0l19 70h-6c-55 -50 -102 -82 -175 -82c-144 0 -201 146 -180 275c21 134 125 280 275 280c64 0 113 -23 143 -75h6l2 63h253l-84 -531h-253zM347 580l-76 58
c38 50 94 103 157 103c27 0 43 -9 64 -22c14 -9 32 -23 52 -23c26 0 45 27 57 46l83 -50c-34 -51 -88 -111 -152 -111c-21 0 -36 5 -54 13l-42 20c-8 4 -23 12 -34 12c-25 0 -43 -27 -55 -46z" />
    <glyph glyph-name="ccedilla" unicode="&#xe7;" horiz-adv-x="514" 
d="M548 516l-34 -215c-24 23 -51 44 -88 44c-47 0 -86 -31 -94 -79c-7 -42 22 -76 64 -76c40 0 73 20 107 41l-46 -218c-42 -13 -89 -25 -134 -25c-172 0 -280 97 -251 275c25 157 159 280 318 280c54 0 108 -10 158 -27zM192 -249l-88 88l183 146l83 -82z" />
    <glyph glyph-name="eacute" unicode="&#xe9;" horiz-adv-x="698" 
d="M699 222h-375c-7 -43 -7 -91 47 -91c27 0 50 19 59 44h251c-55 -128 -207 -187 -329 -187c-167 0 -306 86 -277 269c28 176 181 286 350 286c189 0 319 -122 274 -321zM342 332h121c5 36 -15 69 -52 69c-39 0 -64 -32 -69 -69zM476 786l112 -83l-187 -144l-82 62z" />
    <glyph glyph-name="ecircumflex" unicode="&#xea;" horiz-adv-x="698" 
d="M699 222h-375c-7 -43 -7 -91 47 -91c27 0 50 19 59 44h251c-55 -128 -207 -187 -329 -187c-167 0 -306 86 -277 269c28 176 181 286 350 286c189 0 319 -122 274 -321zM342 332h121c5 36 -15 69 -52 69c-39 0 -64 -32 -69 -69zM289 569l-32 102l218 115l179 -115
l-63 -102l-138 73z" />
    <glyph glyph-name="edieresis" unicode="&#xeb;" horiz-adv-x="698" 
d="M699 222h-375c-7 -43 -7 -91 47 -91c27 0 50 19 59 44h251c-55 -128 -207 -187 -329 -187c-167 0 -306 86 -277 269c28 176 181 286 350 286c189 0 319 -122 274 -321zM342 332h121c5 36 -15 69 -52 69c-39 0 -64 -32 -69 -69zM346 746c46 0 77 -37 70 -83
s-50 -83 -96 -83s-77 37 -70 83s50 83 96 83zM589 746c46 0 77 -37 70 -83s-50 -83 -96 -83s-77 37 -70 83s50 83 96 83z" />
    <glyph glyph-name="egrave" unicode="&#xe8;" horiz-adv-x="698" 
d="M699 222h-375c-7 -43 -7 -91 47 -91c27 0 50 19 59 44h251c-55 -128 -207 -187 -329 -187c-167 0 -306 86 -277 269c28 176 181 286 350 286c189 0 319 -122 274 -321zM342 332h121c5 36 -15 69 -52 69c-39 0 -64 -32 -69 -69zM332 703l138 83l105 -165l-100 -62z" />
    <glyph glyph-name="iacute" unicode="&#xed;" horiz-adv-x="392" 
d="M67 0l84 531h258l-84 -531h-258zM338 786l112 -83l-187 -144l-82 62z" />
    <glyph glyph-name="icircumflex" unicode="&#xee;" horiz-adv-x="392" 
d="M67 0l84 531h258l-84 -531h-258zM136 569l-32 102l218 115l179 -115l-63 -102l-138 73z" />
    <glyph glyph-name="idieresis" unicode="&#xef;" horiz-adv-x="392" 
d="M67 0l84 531h258l-84 -531h-258zM193 746c46 0 77 -37 70 -83s-50 -83 -96 -83s-77 37 -70 83s50 83 96 83zM436 746c46 0 77 -37 70 -83s-50 -83 -96 -83s-77 37 -70 83s50 83 96 83z" />
    <glyph glyph-name="igrave" unicode="&#xec;" horiz-adv-x="392" 
d="M67 0l84 531h258l-84 -531h-258zM164 703l138 83l105 -165l-100 -62z" />
    <glyph glyph-name="ntilde" unicode="&#xf1;" horiz-adv-x="703" 
d="M386 531l-23 -85h6c59 58 103 97 186 97c132 0 168 -99 150 -216l-52 -327h-258l41 259c5 31 12 75 -32 75c-43 0 -50 -44 -55 -75l-41 -259h-258l84 531h252zM327 580l-76 58c38 50 94 103 157 103c27 0 43 -9 64 -22c14 -9 32 -23 52 -23c26 0 45 27 57 46l83 -50
c-34 -51 -88 -111 -152 -111c-21 0 -36 5 -54 13l-42 20c-8 4 -23 12 -34 12c-25 0 -43 -27 -55 -46z" />
    <glyph glyph-name="oacute" unicode="&#xf3;" horiz-adv-x="714" 
d="M443 543c175 0 306 -98 277 -284c-28 -176 -199 -271 -365 -271s-307 95 -279 271c29 186 192 284 367 284zM411 341c-43 0 -78 -35 -84 -78c-7 -42 20 -73 60 -73s77 31 84 73c6 43 -17 78 -60 78zM499 786l112 -83l-187 -144l-82 62z" />
    <glyph glyph-name="ocircumflex" unicode="&#xf4;" horiz-adv-x="714" 
d="M443 543c175 0 306 -98 277 -284c-28 -176 -199 -271 -365 -271s-307 95 -279 271c29 186 192 284 367 284zM411 341c-43 0 -78 -35 -84 -78c-7 -42 20 -73 60 -73s77 31 84 73c6 43 -17 78 -60 78zM297 569l-32 102l218 115l179 -115l-63 -102l-138 73z" />
    <glyph glyph-name="odieresis" unicode="&#xf6;" horiz-adv-x="714" 
d="M443 543c175 0 306 -98 277 -284c-28 -176 -199 -271 -365 -271s-307 95 -279 271c29 186 192 284 367 284zM411 341c-43 0 -78 -35 -84 -78c-7 -42 20 -73 60 -73s77 31 84 73c6 43 -17 78 -60 78zM354 746c46 0 77 -37 70 -83s-50 -83 -96 -83s-77 37 -70 83
s50 83 96 83zM597 746c46 0 77 -37 70 -83s-50 -83 -96 -83s-77 37 -70 83s50 83 96 83z" />
    <glyph glyph-name="ograve" unicode="&#xf2;" horiz-adv-x="714" 
d="M443 543c175 0 306 -98 277 -284c-28 -176 -199 -271 -365 -271s-307 95 -279 271c29 186 192 284 367 284zM411 341c-43 0 -78 -35 -84 -78c-7 -42 20 -73 60 -73s77 31 84 73c6 43 -17 78 -60 78zM325 703l138 83l105 -165l-100 -62z" />
    <glyph glyph-name="otilde" unicode="&#xf5;" horiz-adv-x="714" 
d="M443 543c175 0 306 -98 277 -284c-28 -176 -199 -271 -365 -271s-307 95 -279 271c29 186 192 284 367 284zM411 341c-43 0 -78 -35 -84 -78c-7 -42 20 -73 60 -73s77 31 84 73c6 43 -17 78 -60 78zM332 580l-76 58c38 50 94 103 157 103c27 0 43 -9 64 -22
c14 -9 32 -23 52 -23c26 0 45 27 57 46l83 -50c-34 -51 -88 -111 -152 -111c-21 0 -36 5 -54 13l-42 20c-8 4 -23 12 -34 12c-25 0 -43 -27 -55 -46z" />
    <glyph glyph-name="scaron" unicode="&#x161;" horiz-adv-x="533" 
d="M16 47l92 160l14 -10c33 -22 80 -49 124 -49c17 0 40 9 43 29c5 29 -26 30 -47 33c-84 12 -158 47 -142 147c21 133 163 186 277 186c66 0 146 -13 199 -45l-86 -147c-30 24 -70 44 -112 44c-16 0 -38 -5 -41 -24c-4 -26 23 -28 58 -34c90 -15 160 -47 143 -154
c-22 -138 -168 -195 -288 -195c-84 0 -162 26 -234 59zM240 784l140 -71l162 71l32 -100l-217 -115l-181 115z" />
    <glyph glyph-name="uacute" unicode="&#xfa;" horiz-adv-x="697" 
d="M133 531h256l-43 -274c-5 -31 -8 -64 34 -64s49 33 54 64l43 274h256l-47 -300c-27 -168 -185 -243 -339 -243s-288 75 -261 243zM496 786l112 -83l-187 -144l-82 62z" />
    <glyph glyph-name="ucircumflex" unicode="&#xfb;" horiz-adv-x="697" 
d="M133 531h256l-43 -274c-5 -31 -8 -64 34 -64s49 33 54 64l43 274h256l-47 -300c-27 -168 -185 -243 -339 -243s-288 75 -261 243zM289 569l-32 102l218 115l179 -115l-63 -102l-138 73z" />
    <glyph glyph-name="udieresis" unicode="&#xfc;" horiz-adv-x="697" 
d="M133 531h256l-43 -274c-5 -31 -8 -64 34 -64s49 33 54 64l43 274h256l-47 -300c-27 -168 -185 -243 -339 -243s-288 75 -261 243zM346 746c46 0 77 -37 70 -83s-50 -83 -96 -83s-77 37 -70 83s50 83 96 83zM589 746c46 0 77 -37 70 -83s-50 -83 -96 -83s-77 37 -70 83
s50 83 96 83z" />
    <glyph glyph-name="ugrave" unicode="&#xf9;" horiz-adv-x="697" 
d="M133 531h256l-43 -274c-5 -31 -8 -64 34 -64s49 33 54 64l43 274h256l-47 -300c-27 -168 -185 -243 -339 -243s-288 75 -261 243zM312 703l138 83l105 -165l-100 -62z" />
    <glyph glyph-name="yacute" unicode="&#xfd;" horiz-adv-x="658" 
d="M62 531h278l26 -208l2 -81h7l26 81l92 208h271l-459 -750h-272l180 272zM476 786l112 -83l-187 -144l-82 62z" />
    <glyph glyph-name="ydieresis" unicode="&#xff;" horiz-adv-x="658" 
d="M62 531h278l26 -208l2 -81h7l26 81l92 208h271l-459 -750h-272l180 272zM341 746c46 0 77 -37 70 -83s-50 -83 -96 -83s-77 37 -70 83s50 83 96 83zM584 746c46 0 77 -37 70 -83s-50 -83 -96 -83s-77 37 -70 83s50 83 96 83z" />
    <glyph glyph-name="zcaron" unicode="&#x17e;" horiz-adv-x="605" 
d="M668 501l-195 -234l-65 -67l-1 -6l54 6h147l-32 -200h-560l6 36l194 238l63 60l1 4l-61 -7h-125l32 200h547zM276 784l140 -71l162 71l32 -100l-217 -115l-181 115z" />
    <glyph glyph-name="Omega" unicode="&#x2126;" horiz-adv-x="1002" 
d="M250 165l1 4c-67 41 -144 127 -123 263c29 183 220 329 495 329c274 0 417 -142 387 -332c-21 -131 -107 -201 -210 -260l-1 -4h183l-26 -165h-421l20 129c113 66 190 132 210 259c19 118 -46 211 -166 211c-110 0 -216 -76 -238 -214c-17 -109 33 -205 129 -256
l-20 -129h-424l26 165h178z" />
    <glyph glyph-name="uni03BC" unicode="&#x3bc;" horiz-adv-x="697" 
d="M133 528h256l-44 -274c-5 -31 -8 -64 34 -64s49 33 54 64l44 274h256l-48 -300c-26 -168 -184 -243 -308 -243c-45 0 -79 11 -101 19l-6 -223h-256z" />
    <glyph glyph-name="pi" unicode="&#x3c0;" horiz-adv-x="847" 
d="M876 399h-79l-32 -203c-12 -77 -19 -158 -16 -196h-232c-15 20 -5 107 6 177l35 222h-124c-21 -135 -80 -332 -127 -399h-233c49 102 112 286 126 399c-34 0 -82 -1 -119 -9l1 131c30 29 110 44 249 44h591z" />
    <glyph glyph-name="Euro" unicode="&#x20ac;" 
d="M865 717l-28 -176c-25 24 -83 47 -182 47c-126 0 -182 -49 -210 -107h325l-58 -92h-291c-2 -6 -4 -18 -5 -23c-2 -11 -3 -23 -3 -30h265l-57 -92h-203c12 -51 58 -80 170 -80c75 0 161 23 197 48l-29 -180c-34 -19 -105 -43 -219 -43c-261 0 -360 94 -372 255h-111l58 92
h56c1 9 2 17 3 27c2 9 3 16 6 26h-100l58 92h64c65 159 184 284 461 284c111 0 181 -28 205 -48z" />
    <glyph glyph-name="afii61289" unicode="&#x2113;" horiz-adv-x="766" 
d="M677 260l83 -97c-105 -129 -243 -172 -359 -172c-127 0 -201 38 -226 150c0 2 0 5 -1 7c-24 -13 -35 -19 -57 -30l-47 108c36 20 82 45 122 67l32 197c36 230 146 331 319 331c158 0 216 -97 198 -206c-21 -138 -134 -238 -332 -367l1 -11c1 -37 26 -67 79 -67
c66 0 137 41 188 90zM459 563l-21 -135c74 60 124 132 132 187c7 43 -6 67 -35 67c-31 0 -62 -31 -76 -119z" />
    <glyph glyph-name="estimated" unicode="&#x212e;" horiz-adv-x="1059" 
d="M1022 366h-700c-3 0 -5 -1 -5 -4v-212c0 -9 3 -17 9 -24c68 -71 161 -115 265 -115c111 0 210 50 278 128h62c-77 -91 -202 -150 -342 -150c-238 0 -431 173 -431 388s193 389 431 389c240 0 433 -174 433 -389v-11zM863 394v213c0 9 -3 18 -10 25
c-68 67 -160 110 -262 110c-103 0 -196 -44 -264 -113c-7 -7 -10 -17 -10 -27v-208c0 -3 2 -7 5 -7h537c3 0 4 4 4 7z" />
    <glyph glyph-name="partialdiff" unicode="&#x2202;" horiz-adv-x="795" 
d="M223 634l-44 141c37 20 143 72 292 72c244 0 389 -173 349 -423c-44 -277 -254 -433 -484 -433c-214 0 -282 158 -265 265c23 150 153 284 341 284c109 0 163 -60 182 -93h1c1 3 2 10 3 13c17 111 -34 219 -182 219c-92 0 -164 -32 -193 -45zM388 155h1
c72 0 138 71 159 139c-2 32 -35 87 -104 87c-73 0 -130 -53 -141 -125c-10 -63 30 -101 85 -101z" />
    <glyph glyph-name="product" unicode="&#x220f;" horiz-adv-x="1077" 
d="M1060 566h-131v-669h-227v669h-208v-669h-227v669h-131v182h924v-182z" />
    <glyph glyph-name="summation" unicode="&#x2211;" horiz-adv-x="882" 
d="M869 -103h-728v116l285 302l-267 293v140h677v-182h-354v-5l209 -226l-232 -251v-6h410v-181z" />
    <glyph glyph-name="uni2219" unicode="&#x2219;" horiz-adv-x="416" 
d="M276 430c71 0 121 -59 110 -130c-12 -71 -80 -130 -151 -130s-121 59 -109 130c11 71 79 130 150 130z" />
    <glyph glyph-name="radical" unicode="&#x221a;" horiz-adv-x="932" 
d="M975 893l-317 -1058h-176l-205 455l-92 -38l-37 102l261 107l129 -329c13 -32 24 -64 34 -95h2c7 27 15 61 25 100l212 756h164z" />
    <glyph glyph-name="infinity" unicode="&#x221e;" horiz-adv-x="980" 
d="M932 312v-1c0 -136 -97 -213 -197 -213c-54 0 -132 12 -206 121c-57 -73 -115 -121 -205 -121c-102 0 -195 78 -195 205c0 126 90 210 206 210c88 0 148 -38 205 -115c37 42 93 118 199 115c103 -1 193 -77 193 -201zM335 206h2c55 0 100 49 133 93
c-41 61 -70 107 -136 107c-49 0 -93 -34 -93 -102c0 -52 42 -98 94 -98zM728 406h-1c-58 0 -100 -56 -133 -99c62 -86 96 -101 141 -101c55 0 84 55 84 96c0 59 -34 104 -91 104z" />
    <glyph glyph-name="integral" unicode="&#x222b;" horiz-adv-x="613" 
d="M612 924l-19 -131c-15 4 -31 6 -48 6c-31 0 -57 -14 -68 -34c-19 -30 -24 -79 -24 -164c0 -89 5 -160 11 -235c5 -74 10 -152 10 -253c0 -89 -15 -163 -40 -208c-42 -74 -118 -104 -192 -104c-38 0 -89 6 -115 18l24 137c14 -6 35 -10 55 -10c25 0 46 8 61 26
c22 26 31 65 31 145c0 104 -6 183 -11 260c-6 77 -12 152 -12 247c0 129 28 201 86 257c39 39 107 56 169 56c33 0 68 -8 82 -13z" />
    <glyph glyph-name="approxequal" unicode="&#x2248;" horiz-adv-x="776" 
d="M665 526l79 -82c-61 -84 -133 -118 -189 -118s-90 16 -139 43c-30 16 -60 33 -100 33c-53 0 -92 -33 -130 -76l-76 82c39 59 126 117 206 117c57 0 92 -13 126 -35c51 -32 69 -42 104 -42c43 0 81 29 119 78zM665 295l79 -82c-60 -82 -130 -118 -191 -118
c-55 0 -93 19 -137 43c-35 19 -62 34 -99 34c-56 0 -93 -34 -131 -77l-76 82c39 59 127 117 207 117c55 0 91 -14 124 -34c34 -19 60 -42 103 -42c46 0 79 26 121 77z" />
    <glyph glyph-name="notequal" unicode="&#x2260;" horiz-adv-x="790" 
d="M624 568l-38 -82h149v-118h-202l-58 -128h260v-118h-315l-59 -129l-97 45l39 84h-149v118h202l59 128h-261v118h314l58 127z" />
    <glyph glyph-name="lessequal" unicode="&#x2264;" horiz-adv-x="814" 
d="M759 158l-581 241v126l580 239v-128l-449 -173v-3l450 -174v-128zM759 0h-581v122h581v-122z" />
    <glyph glyph-name="greaterequal" unicode="&#x2265;" horiz-adv-x="814" 
d="M178 764l581 -240v-127l-580 -239v128l449 174v3l-450 173v128zM752 0h-573v122h573v-122z" />
    <glyph glyph-name="lozenge" unicode="&#x25ca;" horiz-adv-x="933" 
d="M882 372l-269 -420h-173l-268 420l268 422h173zM686 368l-140 236c-7 12 -17 29 -21 38h-2c-5 -9 -14 -26 -21 -38l-134 -228l140 -236c7 -12 16 -29 19 -38h4c4 9 13 26 20 38z" />
    <glyph glyph-name="uni00A0" unicode="&#xa0;" horiz-adv-x="416" 
 />
    <glyph glyph-name="uni00AD" unicode="&#xad;" horiz-adv-x="485" 
d="M90 165l35 220h357l-35 -220h-357z" />
    <glyph glyph-name="uni02C9" unicode="&#x2c9;" horiz-adv-x="600" 
d="M219 608l16 98h355l-16 -98h-355z" />
    <glyph glyph-name="uni03A9" unicode="&#x3a9;" horiz-adv-x="1002" 
d="M250 165l1 4c-67 41 -144 127 -123 263c29 183 220 329 495 329c274 0 417 -142 387 -332c-21 -131 -107 -201 -210 -260l-1 -4h183l-26 -165h-421l20 129c113 66 190 132 210 259c19 118 -46 211 -166 211c-110 0 -216 -76 -238 -214c-17 -109 33 -205 129 -256
l-20 -129h-424l26 165h178z" />
    <glyph glyph-name="uni2215" unicode="&#x2215;" horiz-adv-x="127" 
d="M-249 0l636 754h108l-633 -754h-111z" />
    <glyph glyph-name="a.superior" horiz-adv-x="420" 
d="M265 599c-4 -23 9 -44 35 -44c27 0 49 22 53 45c4 25 -11 42 -38 42c-26 0 -46 -20 -50 -43zM537 757l-50 -317h-164l11 40h-4c-35 -30 -66 -49 -113 -49c-94 0 -132 88 -120 165c13 80 80 170 178 170c41 0 74 -16 93 -47h4l1 38h164z" />
    <glyph glyph-name="o.superior" horiz-adv-x="420" 
d="M331 766c114 0 200 -59 182 -171c-17 -106 -127 -164 -235 -164s-200 58 -183 164c18 112 122 171 236 171zM312 642c-28 0 -50 -20 -55 -46c-3 -24 15 -41 41 -41s50 17 53 41c5 26 -11 46 -39 46z" />
    <glyph glyph-name="one.superior" horiz-adv-x="500" 
d="M220 608l23 143l253 7l-72 -452h-177l49 307z" />
    <glyph glyph-name="two.superior" horiz-adv-x="500" 
d="M55 306l222 161c34 25 122 88 128 129c4 20 -12 36 -34 36c-38 0 -48 -30 -53 -57h-174c34 132 106 191 254 191c102 0 202 -55 185 -160c-14 -91 -109 -147 -199 -172l-1 -5l86 11l96 6l-23 -140h-487z" />
    <glyph glyph-name="three.superior" horiz-adv-x="500" 
d="M97 465h179c-6 -27 13 -51 43 -51c24 0 50 18 54 41s-14 42 -38 42c-8 0 -16 -1 -25 -2l15 94l14 -1c20 -2 39 14 42 32c3 19 -10 30 -29 30c-20 0 -36 -17 -37 -35h-176c29 114 124 151 236 151c83 0 197 -35 182 -130c-6 -37 -35 -72 -74 -87l-1 -4
c49 -12 73 -54 65 -102c-17 -110 -148 -144 -245 -144c-119 0 -220 42 -205 166z" />
    <glyph glyph-name="uni2206" unicode="&#x2206;" horiz-adv-x="898" 
d="M23 0l16 103l390 661h285l175 -661l-16 -103h-850zM306 167h318l-64 294c-9 43 -20 94 -27 141h-6c-16 -33 -43 -89 -65 -133z" />
    <glyph glyph-name="uni2010" unicode="&#x2010;" horiz-adv-x="485" 
d="M90 165l35 220h357l-35 -220h-357z" />
    </font>
</defs>
</svg>
