<?xml version="1.0" standalone="no"?>
<!DOCTYPE svg PUBLIC "-//W3C//DTD SVG 1.1//EN" "http://www.w3.org/Graphics/SVG/1.1/DTD/svg11.dtd" >
<svg xmlns="http://www.w3.org/2000/svg" xmlns:xlink="http://www.w3.org/1999/xlink" version="1.1">
<metadata>
Created by FontForge 20161003 at Sun Jan 22 12:56:03 2017
 By www-data
 Copyright (c) 1987, 1991, 1993, 2002 Fundicion Tipografica Neufville S. A.
 This record material and the data recorded thereon is the property of
 Fundicion Tipografica Neufville S. A. and Adobe Systems Incorporated,
 or its licensors, and may not be reproduced, used, displayed, modified,
 disclosed or transferred in any manner without the express written
 approval of Fundicion Tipografica Neufville S. A. and Adobe Systems
 Incorporated. 
</metadata>
<defs>
<font id="FuturaStd-ExtraBold" horiz-adv-x="832" >
  <font-face 
    font-family="Futura Std"
    font-weight="750"
    font-stretch="normal"
    units-per-em="1000"
    panose-1="2 11 9 3 2 2 4 2 2 4"
    ascent="825"
    descent="-175"
    x-height="531"
    cap-height="754"
    bbox="-249 -260 1662 1009"
    underline-thickness="50"
    underline-position="-100"
    stemh="206"
    stemv="258"
    unicode-range="U+0020-FB02"
  />
<missing-glyph horiz-adv-x="500" 
d="M0 0v700h500v-700h-500zM250 395l170 255h-340zM280 350l170 -255v510zM80 50h340l-170 255zM50 605v-510l170 255z" />
    <glyph glyph-name="f_i" unicode="fi" horiz-adv-x="822" 
d="M497 0v531h258v-531h-258zM626 819c81 0 142 -47 142 -124c0 -87 -68 -125 -142 -125s-142 38 -142 125c0 77 61 124 142 124zM75 522v56c0 155 70 241 230 241c38 0 75 -6 113 -12v-205c-13 5 -23 9 -35 9c-44 0 -54 -36 -54 -71v-20l87 11v-207l-83 7v-331h-258v331
l-70 -7v207z" />
    <glyph glyph-name="f_l" unicode="fl" horiz-adv-x="803" 
d="M487 0v811h258v-811h-258zM75 522v56c0 155 70 241 230 241c38 0 75 -6 113 -12v-205c-13 5 -23 9 -35 9c-44 0 -54 -36 -54 -71v-20l87 11v-207l-83 7v-331h-258v331l-70 -7v207z" />
    <glyph glyph-name=".notdef" horiz-adv-x="500" 
d="M0 0v700h500v-700h-500zM250 395l170 255h-340zM280 350l170 -255v510zM80 50h340l-170 255zM50 605v-510l170 255z" />
    <glyph glyph-name="space" unicode=" " horiz-adv-x="416" 
 />
    <glyph glyph-name="exclam" unicode="!" horiz-adv-x="462" 
d="M361 288h-264v515h264v-515zM229 239c73 0 149 -47 149 -127c0 -79 -76 -124 -149 -124s-149 45 -149 124c0 80 76 127 149 127z" />
    <glyph glyph-name="quotedbl" unicode="&#x22;" horiz-adv-x="788" 
d="M636 381h-179l-40 373h259zM331 381h-179l-40 373h259z" />
    <glyph glyph-name="numbersign" unicode="#" 
d="M311 801h142l-52 -224h136l52 224h142l-53 -224h108v-124h-132l-32 -138h126v-124h-159l-44 -191h-143l45 191h-136l-44 -191h-143l44 191h-122v124h152l32 138h-129v124h157zM373 453l-32 -138h137l35 138h-140z" />
    <glyph glyph-name="dollar" unicode="$" 
d="M341 752l-5 122h171l-10 -116c67 -5 131 -26 190 -58l-76 -190c-48 41 -112 64 -175 64c-31 0 -68 -11 -68 -48c0 -39 59 -39 85 -42c145 -17 272 -58 272 -228c0 -135 -101 -231 -231 -247l7 -124h-162l7 123c-86 3 -167 37 -239 84l77 198c63 -53 133 -96 217 -96
c32 0 85 5 85 48c0 35 -41 43 -68 47l-43 7c-131 21 -241 71 -241 221c0 138 91 198 207 235z" />
    <glyph glyph-name="percent" unicode="%" horiz-adv-x="1145" 
d="M882 404c133 0 240 -64 240 -206c0 -143 -115 -210 -240 -210s-240 67 -240 210c0 142 107 206 240 206zM882 254c-33 0 -48 -28 -48 -56c0 -29 15 -53 48 -53s48 24 48 53c0 28 -15 56 -48 56zM263 766c133 0 240 -64 240 -206c0 -143 -115 -210 -240 -210
s-240 67 -240 210c0 142 107 206 240 206zM263 616c-33 0 -48 -28 -48 -56c0 -29 15 -53 48 -53s48 24 48 53c0 28 -15 56 -48 56zM249 0l517 776h137l-513 -776h-141z" />
    <glyph glyph-name="ampersand" unicode="&#x26;" horiz-adv-x="962" 
d="M450 602c-28 0 -48 -22 -48 -49c0 -21 19 -49 37 -59c23 13 52 36 52 64c0 22 -19 44 -41 44zM630 0l-50 57c-76 -50 -147 -69 -238 -69c-149 0 -302 67 -302 238c0 111 90 169 189 188c-43 40 -74 80 -74 141c0 149 150 211 278 211c121 0 276 -68 276 -209
c0 -88 -64 -163 -147 -188l68 -69c46 30 81 73 116 114l143 -162l-118 -89l174 -163h-315zM436 196l-95 95c-21 -14 -45 -30 -45 -58c0 -39 32 -57 68 -57c28 0 48 10 72 20z" />
    <glyph glyph-name="quoteright" unicode="&#x2019;" horiz-adv-x="493" 
d="M257 381h-201l121 373h259z" />
    <glyph glyph-name="parenleft" unicode="(" horiz-adv-x="450" 
d="M202 839l193 -112c-71 -109 -100 -288 -100 -417c0 -160 29 -309 100 -418l-193 -111l-46 96c-62 129 -101 289 -101 433s39 304 101 433z" />
    <glyph glyph-name="parenright" unicode=")" horiz-adv-x="450" 
d="M55 727l193 112l46 -96c62 -129 101 -289 101 -433s-39 -304 -101 -433l-46 -96l-193 111c71 109 100 258 100 418c0 129 -29 308 -100 417z" />
    <glyph glyph-name="asterisk" unicode="*" horiz-adv-x="492" 
d="M297 380h-106v89l-77 -44l-53 86l84 51l-84 48l53 90l77 -45v99h106v-104l81 50l53 -90l-77 -48l77 -42l-53 -95l-81 47v-92z" />
    <glyph glyph-name="plus" unicode="+" horiz-adv-x="800" 
d="M300 400v200h200v-200h200v-200h-200v-200h-200v200h-200v200h200z" />
    <glyph glyph-name="comma" unicode="," horiz-adv-x="416" 
d="M201 -166h-201l121 373h259z" />
    <glyph glyph-name="hyphen" unicode="-" horiz-adv-x="485" 
d="M64 165v220h357v-220h-357z" />
    <glyph glyph-name="period" unicode="." horiz-adv-x="416" 
d="M208 239c73 0 149 -47 149 -127c0 -79 -76 -124 -149 -124s-149 45 -149 124c0 80 76 127 149 127z" />
    <glyph glyph-name="slash" unicode="/" horiz-adv-x="728" 
d="M167 -150h-149l544 961h148z" />
    <glyph glyph-name="zero" unicode="0" 
d="M416 766c228 0 360 -168 360 -382c0 -226 -127 -396 -360 -396s-360 170 -360 396c0 214 132 382 360 382zM416 532c-82 0 -98 -93 -98 -155c0 -58 21 -166 98 -166s98 108 98 166c0 62 -16 155 -98 155z" />
    <glyph glyph-name="one" unicode="1" 
d="M186 504v238l388 12v-754h-272v512z" />
    <glyph glyph-name="two" unicode="2" 
d="M775 0h-749l301 267c47 42 166 148 166 215c0 34 -28 60 -62 60c-58 0 -65 -49 -67 -95h-268c20 220 118 319 345 319c157 0 323 -91 323 -266c0 -152 -132 -246 -265 -287v-8l129 18l147 9v-232z" />
    <glyph glyph-name="three" unicode="3" 
d="M62 264h276c-2 -45 32 -85 78 -85c37 0 74 31 74 69s-32 70 -69 70c-13 0 -25 -2 -37 -4v157l22 -2c30 -3 57 23 57 54s-23 50 -53 50c-31 0 -51 -28 -48 -58h-270c17 189 154 251 326 251c127 0 311 -59 311 -216c0 -62 -35 -121 -93 -146v-6c79 -20 125 -90 125 -170
c0 -183 -192 -240 -341 -240c-184 0 -349 70 -358 276z" />
    <glyph glyph-name="four" unicode="4" 
d="M399 464l-97 -119v-4l133 7v113c0 21 5 42 12 62l-6 4c-11 -23 -26 -44 -42 -63zM52 143v198l309 413h324v-406l95 7v-212l-102 8l7 -151h-260l10 151z" />
    <glyph glyph-name="five" unicode="5" 
d="M203 754h513v-211h-323c-5 -29 -11 -60 -24 -87h7c25 33 90 40 128 40c138 0 258 -92 258 -236c0 -185 -201 -272 -361 -272c-79 0 -230 26 -301 61l30 204c55 -30 163 -62 225 -62c46 0 133 16 133 75c0 61 -108 75 -151 75c-68 0 -137 -11 -200 -33z" />
    <glyph glyph-name="six" unicode="6" 
d="M355 754h359l-241 -212l1 -6c25 4 50 11 75 11c134 0 225 -126 225 -252c0 -199 -170 -307 -354 -307c-188 0 -362 116 -362 319c0 110 54 198 128 274zM322 296c0 -53 39 -93 93 -93c51 0 94 36 94 89c0 54 -42 98 -96 98c-51 0 -91 -45 -91 -94z" />
    <glyph glyph-name="seven" unicode="7" 
d="M297 519l-206 -7v242h732l-429 -754h-303l284 477c9 16 18 34 32 45v6z" />
    <glyph glyph-name="eight" unicode="8" 
d="M416 766c135 0 320 -62 320 -228c0 -70 -45 -126 -112 -146v-7c79 -20 136 -85 136 -169c0 -177 -208 -228 -344 -228s-344 51 -344 228c0 84 57 149 136 169v7c-67 20 -112 76 -112 146c0 166 185 228 320 228zM416 576c-32 0 -56 -26 -56 -59c0 -31 27 -55 56 -55
s56 24 56 55c0 33 -24 59 -56 59zM416 317c-37 0 -74 -30 -74 -71c0 -43 33 -77 74 -77s74 34 74 77c0 41 -37 71 -74 71z" />
    <glyph glyph-name="nine" unicode="9" 
d="M116 0l189 167c14 13 27 27 45 34v5l-41 -2c-157 -8 -252 115 -252 265c0 195 169 297 347 297c195 0 371 -98 371 -313c0 -113 -45 -190 -120 -269l-175 -184h-364zM328 457c0 -53 40 -94 93 -94c49 0 88 42 88 90c0 49 -38 92 -88 92c-49 0 -93 -38 -93 -88z" />
    <glyph glyph-name="colon" unicode=":" horiz-adv-x="416" 
d="M208 239c73 0 149 -47 149 -127c0 -79 -76 -124 -149 -124s-149 45 -149 124c0 80 76 127 149 127zM208 543c73 0 149 -47 149 -127c0 -79 -76 -124 -149 -124s-149 45 -149 124c0 80 76 127 149 127z" />
    <glyph glyph-name="semicolon" unicode=";" horiz-adv-x="416" 
d="M201 -166h-201l121 373h259zM258 543c73 0 149 -47 149 -127c0 -79 -76 -124 -149 -124s-149 45 -149 124c0 80 76 127 149 127z" />
    <glyph glyph-name="less" unicode="&#x3c;" horiz-adv-x="800" 
d="M100 177v244l600 182v-212l-332 -91v-2l332 -91v-212z" />
    <glyph glyph-name="equal" unicode="=" horiz-adv-x="800" 
d="M100 0v200h600v-200h-600zM100 312v200h600v-200h-600z" />
    <glyph glyph-name="greater" unicode="&#x3e;" horiz-adv-x="800" 
d="M700 421v-244l-600 -182v212l332 91v2l-332 91v212z" />
    <glyph glyph-name="question" unicode="?" horiz-adv-x="697" 
d="M266 294v194c17 -5 34 -10 51 -10c48 0 89 28 89 79c0 29 -18 50 -48 50c-33 0 -51 -33 -52 -64h-257c5 165 144 271 302 271c167 0 304 -96 304 -273c0 -179 -146 -256 -307 -256c-27 0 -55 3 -82 9zM358 239c73 0 149 -47 149 -127c0 -79 -76 -124 -149 -124
s-149 45 -149 124c0 80 76 127 149 127z" />
    <glyph glyph-name="at" unicode="@" horiz-adv-x="800" 
d="M311 353c0 -48 27 -91 76 -91c62 0 88 59 94 108c7 57 -23 96 -72 96c-57 0 -98 -59 -98 -113zM623 565l-50 -256c-5 -24 -17 -67 12 -64c36 4 87 85 92 171c9 166 -109 250 -262 250c-168 0 -279 -119 -279 -291c0 -182 125 -290 296 -290c83 0 147 12 179 32l82 -65
c-70 -36 -162 -67 -269 -67c-215 0 -388 165 -388 390c0 223 169 391 382 391c88 0 169 -27 235 -86c68 -59 112 -136 112 -230c0 -82 -22 -157 -62 -209c-48 -63 -106 -89 -154 -87c-28 1 -54 26 -62 57c-26 -29 -68 -57 -128 -57c-88 0 -168 82 -168 183
c0 121 80 237 204 237c51 0 93 -19 123 -61l10 52h95z" />
    <glyph glyph-name="A" unicode="A" horiz-adv-x="823" 
d="M306 94l-22 -94h-290l262 754h303l269 -754h-290l-25 94h-207zM355 273h110l-32 133c-8 32 -13 65 -18 97h-10z" />
    <glyph glyph-name="B" unicode="B" horiz-adv-x="736" 
d="M60 0v754h319c146 0 295 -35 295 -209c0 -66 -33 -131 -99 -152v-6c82 -29 134 -89 134 -179c0 -155 -144 -208 -276 -208h-373zM314 464h25c40 0 85 4 85 56c0 56 -51 52 -91 52h-19v-108zM314 305v-125h31c45 0 110 1 110 63c0 63 -70 62 -114 62h-27z" />
    <glyph glyph-name="C" unicode="C" horiz-adv-x="656" 
d="M613 735l8 -287c-44 41 -99 76 -161 76c-82 0 -149 -65 -149 -147c0 -83 71 -147 153 -147c63 0 113 27 157 70l-8 -282c-44 -21 -146 -30 -195 -30c-215 0 -383 167 -383 382c0 220 173 396 394 396c62 0 126 -11 184 -31z" />
    <glyph glyph-name="D" unicode="D" horiz-adv-x="827" 
d="M64 0v754h279c253 0 447 -111 447 -388c0 -224 -158 -366 -379 -366h-347zM338 518v-292h17c91 0 161 42 161 141c0 106 -61 151 -161 151h-17z" />
    <glyph glyph-name="E" unicode="E" horiz-adv-x="624" 
d="M58 0v754h507v-206h-231v-72h211v-196h-211v-74h239v-206h-515z" />
    <glyph glyph-name="F" unicode="F" horiz-adv-x="602" 
d="M62 0v754h505v-216h-229v-78h201v-196h-201v-264h-276z" />
    <glyph glyph-name="G" unicode="G" horiz-adv-x="891" 
d="M436 444h423c-2 -123 -2 -226 -91 -322c-80 -87 -203 -134 -320 -134c-230 0 -416 142 -416 384c0 246 181 394 418 394c131 0 311 -65 370 -194l-256 -94c-21 38 -60 58 -104 58c-98 0 -152 -84 -152 -175c0 -83 52 -161 141 -161c43 0 98 20 111 66h-124v178z" />
    <glyph glyph-name="H" unicode="H" horiz-adv-x="819" 
d="M62 0v754h264v-254h168v254h264v-754h-264v262h-168v-262h-264z" />
    <glyph glyph-name="I" unicode="I" horiz-adv-x="403" 
d="M64 0v754h274v-754h-274z" />
    <glyph glyph-name="J" unicode="J" horiz-adv-x="529" 
d="M200 754h268v-508c0 -150 -106 -258 -257 -258c-78 0 -164 34 -225 82l93 233c14 -36 30 -79 73 -79c44 0 48 50 48 82v448z" />
    <glyph glyph-name="K" unicode="K" horiz-adv-x="821" 
d="M64 0v754h267l-6 -327h6c6 31 23 58 38 85l132 242h299l-236 -367l261 -387h-318l-130 228c-16 29 -40 57 -46 88h-6l6 -316h-267z" />
    <glyph glyph-name="L" unicode="L" horiz-adv-x="579" 
d="M62 0v754h274v-512h230v-242h-504z" />
    <glyph glyph-name="M" unicode="M" horiz-adv-x="1083" 
d="M31 0l122 754h282l104 -396h7c5 33 10 68 19 100l85 296h279l124 -754h-265l-37 413h-5c-5 -25 -10 -51 -18 -75l-109 -338h-160l-98 319c-8 32 -15 62 -17 94h-9c-2 -30 -4 -61 -7 -91l-32 -322h-265z" />
    <glyph glyph-name="N" unicode="N" horiz-adv-x="872" 
d="M58 0v754h263l246 -418h8c-11 63 -23 128 -23 192v226h262v-754h-262l-241 396h-8c9 -52 17 -101 17 -151v-245h-262z" />
    <glyph glyph-name="O" unicode="O" horiz-adv-x="904" 
d="M452 766c229 0 417 -154 417 -391c0 -242 -187 -387 -417 -387s-417 145 -417 387c0 237 188 391 417 391zM452 518c-87 0 -141 -67 -141 -147c0 -86 58 -145 141 -145s141 59 141 145c0 80 -54 147 -141 147z" />
    <glyph glyph-name="P" unicode="P" horiz-adv-x="728" 
d="M62 0v754h347c176 0 306 -90 306 -277c0 -154 -96 -250 -249 -250h-140v-227h-264zM326 548v-131h27c48 0 100 8 100 69c0 59 -56 62 -101 62h-26z" />
    <glyph glyph-name="Q" unicode="Q" horiz-adv-x="924" 
d="M809 147l111 -123l-215 -90l-53 92c-64 -28 -136 -38 -205 -38c-228 0 -401 156 -401 387c0 241 188 391 416 391c239 0 416 -145 416 -391c0 -83 -20 -159 -69 -228zM487 233l-63 70l170 32c6 17 8 28 8 42c0 84 -59 147 -140 147c-89 0 -140 -62 -140 -144
c0 -79 53 -150 134 -150c11 0 21 0 31 3z" />
    <glyph glyph-name="R" unicode="R" horiz-adv-x="757" 
d="M62 0v754h331c170 0 314 -72 314 -262c0 -114 -44 -162 -146 -196v-6c14 -11 31 -23 46 -45l164 -245h-316l-120 242h-5v-242h-268zM330 548v-128h19c45 0 90 7 90 63c0 58 -41 65 -88 65h-21z" />
    <glyph glyph-name="S" unicode="S" horiz-adv-x="663" 
d="M23 57l84 213l14 -11c49 -38 108 -69 171 -69c27 0 70 11 70 45s-36 37 -61 42l-55 10c-107 19 -197 82 -197 200c0 179 163 279 327 279c86 0 165 -21 239 -66l-74 -193c-47 32 -100 57 -159 57c-24 0 -59 -9 -59 -40c0 -28 34 -32 55 -37l62 -14
c116 -26 200 -88 200 -216c0 -180 -164 -269 -327 -269c-95 0 -205 26 -290 69z" />
    <glyph glyph-name="T" unicode="T" horiz-adv-x="596" 
d="M10 509v245h576v-245l-151 7v-516h-274v516z" />
    <glyph glyph-name="U" unicode="U" horiz-adv-x="815" 
d="M482 754h274v-446c0 -220 -138 -320 -349 -320s-349 100 -349 320v446h274v-420c0 -59 2 -111 75 -111s75 52 75 111v420z" />
    <glyph glyph-name="V" unicode="V" horiz-adv-x="814" 
d="M529 754h286l-292 -754h-232l-292 754h286l100 -343c11 -37 19 -74 19 -112h6c0 38 8 75 19 112z" />
    <glyph glyph-name="W" unicode="W" horiz-adv-x="1183" 
d="M-2 754h284l95 -450h6c5 46 11 94 23 139l80 311h210l103 -450h6c4 44 9 90 19 133l76 317h285l-266 -754h-239l-86 410h-9c-3 -39 -5 -77 -14 -114l-76 -296h-233z" />
    <glyph glyph-name="X" unicode="X" horiz-adv-x="831" 
d="M493 754h309l-236 -353l269 -401h-312l-86 160c-8 15 -13 30 -16 46h-8c-5 -18 -12 -35 -21 -52l-84 -154h-312l264 401l-237 353h309l56 -107c11 -20 17 -41 23 -62h6c5 22 14 42 24 62z" />
    <glyph glyph-name="Y" unicode="Y" horiz-adv-x="773" 
d="M-8 754h310l84 -197h8c8 24 15 48 25 71l54 126h308l-258 -429v-325h-268v325z" />
    <glyph glyph-name="Z" unicode="Z" horiz-adv-x="771" 
d="M67 754h702l-328 -521l3 -4c21 2 43 4 64 4h228v-233h-734l272 441c20 33 43 61 67 91l-4 3c-21 -5 -42 -9 -65 -9h-205v228z" />
    <glyph glyph-name="bracketleft" unicode="[" horiz-adv-x="470" 
d="M279 -53h131v-102h-350v966h350v-102h-131v-762z" />
    <glyph glyph-name="backslash" unicode="\" horiz-adv-x="728" 
d="M710 0h-149l-543 811h148z" />
    <glyph glyph-name="bracketright" unicode="]" horiz-adv-x="470" 
d="M60 -53h131v762h-131v102h350v-966h-350v102z" />
    <glyph glyph-name="asciicircum" unicode="^" horiz-adv-x="800" 
d="M278 754h244l178 -542h-208l-91 274h-2l-91 -274h-208z" />
    <glyph glyph-name="underscore" unicode="_" horiz-adv-x="500" 
d="M500 -125h-500v50h500v-50z" />
    <glyph glyph-name="quoteleft" unicode="&#x2018;" horiz-adv-x="493" 
d="M235 754h202l-121 -373h-259z" />
    <glyph glyph-name="a" unicode="a" horiz-adv-x="720" 
d="M288 268c0 -42 20 -78 67 -78c49 0 69 39 69 80s-28 71 -69 71s-67 -34 -67 -73zM416 0l8 70h-6c-47 -50 -89 -82 -162 -82c-144 0 -224 146 -224 275c0 134 81 280 231 280c64 0 117 -23 155 -75h6l-8 63h253v-531h-253z" />
    <glyph glyph-name="b" unicode="b" horiz-adv-x="720" 
d="M365 341c-43 0 -66 -36 -66 -75c0 -40 23 -76 66 -76c40 0 67 42 67 78c0 37 -28 73 -67 73zM50 0v811h258v-224l-12 -127h9c36 49 100 83 160 83c150 0 221 -150 221 -282c0 -127 -76 -273 -220 -273c-69 0 -130 37 -173 91h-6l5 -79h-242z" />
    <glyph glyph-name="c" unicode="c" horiz-adv-x="514" 
d="M466 516v-215c-27 23 -58 44 -95 44c-47 0 -81 -31 -81 -79c0 -42 34 -76 76 -76c40 0 70 20 100 41l-11 -218c-40 -13 -85 -25 -130 -25c-172 0 -295 97 -295 275c0 157 115 280 274 280c54 0 110 -10 162 -27z" />
    <glyph glyph-name="d" unicode="d" horiz-adv-x="720" 
d="M354 341c-43 0 -66 -36 -66 -75c0 -40 23 -76 66 -76c40 0 67 42 67 78c0 37 -28 73 -67 73zM428 0l5 79h-6c-43 -54 -104 -91 -173 -91c-144 0 -220 146 -220 273c0 132 71 282 221 282c60 0 124 -34 160 -83h9l-12 127v224h258v-811h-242z" />
    <glyph glyph-name="e" unicode="e" horiz-adv-x="698" 
d="M664 222h-375c0 -43 7 -91 61 -91c27 0 47 19 52 44h251c-34 -128 -177 -187 -299 -187c-167 0 -320 86 -320 269c0 176 136 286 305 286c189 0 338 -122 325 -321zM289 332h121c0 36 -26 69 -63 69c-39 0 -58 -32 -58 -69z" />
    <glyph glyph-name="f" unicode="f" horiz-adv-x="430" 
d="M75 522v56c0 155 70 241 230 241c38 0 75 -6 113 -12v-205c-13 5 -23 9 -35 9c-44 0 -54 -36 -54 -71v-20l87 11v-207l-83 7v-331h-258v331l-70 -7v207z" />
    <glyph glyph-name="g" unicode="g" horiz-adv-x="722" 
d="M288 265c0 -43 28 -75 73 -75c44 0 65 34 65 74s-24 77 -67 77c-42 0 -71 -34 -71 -76zM667 531v-500c0 -207 -170 -291 -355 -291c-82 0 -152 14 -228 42l-26 9l57 179c49 -42 123 -65 186 -65c70 0 112 51 118 117l5 54h-7c-26 -58 -95 -88 -156 -88
c-145 0 -228 146 -228 278s82 277 229 277c68 0 120 -32 155 -88h7l-7 76h250z" />
    <glyph glyph-name="h" unicode="h" horiz-adv-x="699" 
d="M50 0v811h258v-224l-12 -147h4c48 57 97 103 171 103c132 0 179 -100 179 -217v-326h-252v274c0 28 -4 63 -41 63c-40 0 -49 -30 -49 -63v-274h-258z" />
    <glyph glyph-name="i" unicode="i" horiz-adv-x="392" 
d="M67 0v531h258v-531h-258zM196 819c81 0 142 -47 142 -124c0 -87 -68 -125 -142 -125s-142 38 -142 125c0 77 61 124 142 124z" />
    <glyph glyph-name="j" unicode="j" horiz-adv-x="392" 
d="M67 -219v750h258v-750h-258zM196 819c81 0 142 -47 142 -124c0 -87 -68 -125 -142 -125s-142 38 -142 125c0 77 61 124 142 124z" />
    <glyph glyph-name="k" unicode="k" horiz-adv-x="742" 
d="M52 0v811h258v-477h6l21 45l80 152h301l-195 -260l205 -271h-304l-108 195h-6v-195h-258z" />
    <glyph glyph-name="l" unicode="l" horiz-adv-x="373" 
d="M57 0v811h258v-811h-258z" />
    <glyph glyph-name="m" unicode="m" horiz-adv-x="1011" 
d="M300 531l-8 -94h8c21 65 86 106 154 106c76 0 129 -41 152 -113h6c30 74 79 113 161 113c127 0 183 -98 183 -213v-330h-250v263c0 31 0 71 -38 71c-37 0 -37 -40 -37 -71v-263h-250v263c0 31 0 71 -38 71c-37 0 -37 -40 -37 -71v-263h-250v531h244z" />
    <glyph glyph-name="n" unicode="n" horiz-adv-x="703" 
d="M302 531l-10 -85h6c50 58 88 97 171 97c132 0 184 -99 184 -216v-327h-258v259c0 31 0 75 -44 75c-43 0 -43 -44 -43 -75v-259h-258v531h252z" />
    <glyph glyph-name="o" unicode="o" horiz-adv-x="714" 
d="M357 543c175 0 322 -98 322 -284c0 -176 -156 -271 -322 -271s-322 95 -322 271c0 186 147 284 322 284zM357 341c-43 0 -72 -35 -72 -78c0 -42 32 -73 72 -73s72 31 72 73c0 43 -29 78 -72 78z" />
    <glyph glyph-name="p" unicode="p" horiz-adv-x="716" 
d="M363 341c-43 0 -66 -36 -66 -75c0 -40 23 -76 66 -76c40 0 67 42 67 78c0 37 -28 73 -67 73zM297 531l-8 -84h8c29 61 99 96 166 96c149 0 221 -140 221 -273c0 -125 -78 -282 -223 -282c-58 0 -128 33 -157 85h-7l12 -85v-207h-258v750h246z" />
    <glyph glyph-name="q" unicode="q" horiz-adv-x="716" 
d="M352 340c-43 0 -66 -36 -66 -75c0 -40 23 -76 66 -76c40 0 67 42 67 78c0 37 -28 73 -67 73zM665 531v-750h-258v207l12 85h-7c-29 -52 -99 -85 -157 -85c-145 0 -223 157 -223 282c0 133 72 273 221 273c67 0 137 -35 166 -96h8l-8 84h246z" />
    <glyph glyph-name="r" unicode="r" horiz-adv-x="495" 
d="M487 543v-262c-27 16 -46 29 -79 29c-67 0 -101 -40 -101 -106v-204h-258v531h258l-6 -71h6c46 70 93 85 180 83z" />
    <glyph glyph-name="s" unicode="s" horiz-adv-x="533" 
d="M9 47l66 160l16 -10c36 -22 88 -49 132 -49c17 0 38 9 38 29c0 29 -31 30 -52 33c-86 12 -166 47 -166 147c0 133 134 186 248 186c66 0 148 -13 206 -45l-63 -147c-33 24 -77 44 -119 44c-16 0 -37 -5 -37 -24c0 -26 28 -28 64 -34c92 -15 167 -47 167 -154
c0 -138 -137 -195 -257 -195c-84 0 -166 26 -243 59z" />
    <glyph glyph-name="t" unicode="t" horiz-adv-x="433" 
d="M344 702v-178l86 4v-203l-86 5v-330h-260v330l-63 -5v203l63 -4v178h260z" />
    <glyph glyph-name="u" unicode="u" horiz-adv-x="697" 
d="M49 531h256v-274c0 -31 2 -64 44 -64s44 33 44 64v274h256v-300c0 -168 -146 -243 -300 -243s-300 75 -300 243v300z" />
    <glyph glyph-name="v" unicode="v" horiz-adv-x="686" 
d="M-6 531h277l69 -251h7l13 65l55 186h277l-231 -531h-234z" />
    <glyph glyph-name="w" unicode="w" horiz-adv-x="949" 
d="M-15 531h272l61 -295h8l13 88l51 207h169l69 -295h6l13 88l46 207h271l-218 -531h-208l-58 236h-7l-13 -56l-49 -180h-211z" />
    <glyph glyph-name="x" unicode="x" horiz-adv-x="737" 
d="M22 531h296l33 -66l17 -45h5l20 45l32 66h296l-201 -255l216 -276h-303l-42 75l-18 42h-5l-16 -42l-41 -75h-311l223 276z" />
    <glyph glyph-name="y" unicode="y" horiz-adv-x="658" 
d="M-22 531h278l59 -208l15 -81h7l13 81l59 208h271l-340 -750h-272l137 272z" />
    <glyph glyph-name="z" unicode="z" horiz-adv-x="605" 
d="M589 501l-158 -234l-55 -67v-6l53 6h147v-200h-560v36l157 238l53 60v4l-59 -7h-125v200h547v-30z" />
    <glyph glyph-name="braceleft" unicode="{" horiz-adv-x="470" 
d="M55 236v122c33 17 70 35 70 93v207c0 108 77 153 193 153h97v-140h-25c-46 0 -46 -32 -46 -60v-166c0 -85 -52 -119 -96 -147v-2c44 -28 96 -62 96 -148v-166c0 -28 0 -61 46 -61h25v-140h-97c-116 0 -193 46 -193 155v206c0 58 -37 77 -70 94z" />
    <glyph glyph-name="bar" unicode="|" horiz-adv-x="728" 
d="M264 -214v1000h200v-1000h-200z" />
    <glyph glyph-name="braceright" unicode="}" horiz-adv-x="470" 
d="M415 358v-122c-33 -17 -70 -36 -70 -94v-206c0 -109 -77 -155 -193 -155h-97v140h25c46 0 46 33 46 61v166c0 86 52 120 96 148v2c-44 28 -96 62 -96 147v166c0 28 0 60 -46 60h-25v140h97c116 0 193 -45 193 -153v-207c0 -58 37 -76 70 -93z" />
    <glyph glyph-name="asciitilde" unicode="~" horiz-adv-x="800" 
d="M590 440l110 -128c-21 -40 -109 -163 -184 -163c-49 0 -98 26 -138 57c-36 28 -68 44 -100 44c-24 0 -58 -35 -72 -66l-106 124c18 53 97 144 179 144c41 0 90 -30 129 -54c30 -19 62 -46 102 -46c30 0 64 53 80 88z" />
    <glyph glyph-name="exclamdown" unicode="&#xa1;" horiz-adv-x="462" 
d="M361 296v-515h-264v515h264zM229 608c73 0 149 -47 149 -127c0 -79 -76 -124 -149 -124s-149 45 -149 124c0 80 76 127 149 127z" />
    <glyph glyph-name="cent" unicode="&#xa2;" 
d="M511 657l114 -21l6 -211c-31 22 -58 40 -97 40c-43 0 -76 -28 -76 -72c0 -45 31 -76 76 -76c33 0 72 19 97 41l-3 -211c-38 -11 -77 -22 -117 -24l5 -109h-85l6 109c-145 11 -236 125 -236 268c0 140 99 248 236 266l-5 97h84z" />
    <glyph glyph-name="sterling" unicode="&#xa3;" 
d="M282 413l-8 57c-5 27 -9 54 -9 82c0 142 115 214 247 214c128 0 224 -60 225 -196l-170 -34c0 33 -4 64 -44 64c-34 0 -48 -35 -48 -63c0 -16 3 -31 5 -47c2 -19 7 -39 7 -58v-19l149 8v-141l-154 9l-3 -15c-5 -36 -14 -59 -32 -91l32 -9c25 -9 50 -16 77 -16
c36 0 71 16 99 38l74 -137c-63 -38 -147 -74 -220 -74c-33 0 -82 9 -114 18l-59 16c-19 5 -30 7 -49 7c-40 0 -73 -15 -109 -29l-24 -9l-58 154c51 23 101 48 157 54l30 92l-96 -8v141z" />
    <glyph glyph-name="fraction" unicode="&#x2044;" horiz-adv-x="127" 
d="M-249 0l517 754h108l-514 -754h-111z" />
    <glyph glyph-name="yen" unicode="&#xa5;" 
d="M553 148v-148h-268v148h-203v140h203v37l-23 37h-180v140h94l-154 252h310l84 -197h8c8 24 15 48 25 71l54 126h308l-152 -252h92v-140h-176l-22 -37v-37h198v-140h-198z" />
    <glyph glyph-name="florin" unicode="&#x192;" 
d="M353 535l16 99c16 102 83 196 197 196c49 0 89 -11 134 -30l8 -3l-32 -187c-9 12 -23 21 -38 21c-44 0 -47 -39 -52 -72l-4 -25l80 8l-33 -187l-76 8l-40 -256c-29 -188 -114 -258 -304 -258c-25 0 -51 2 -75 7l33 207l13 -1c23 0 45 4 66 15c32 17 35 44 41 78l35 208
l-69 -8l32 187z" />
    <glyph glyph-name="section" unicode="&#xa7;" 
d="M320 300l211 -95c10 20 19 37 19 50c0 23 -18 30 -36 39l-216 102c-8 -16 -21 -37 -21 -55c0 -24 24 -32 43 -41zM156 31h180c-1 -46 34 -69 77 -69c32 0 66 13 66 50c0 36 -44 51 -70 62l-115 48c-90 38 -195 78 -195 193c0 75 47 132 113 161c-24 29 -37 61 -37 99
c0 133 133 191 249 191c137 0 246 -69 254 -215h-180c1 41 -27 69 -68 69c-29 0 -57 -15 -57 -47c0 -38 51 -51 79 -62l120 -49c84 -34 160 -74 161 -179c0 -82 -37 -116 -102 -157c33 -41 46 -66 47 -120c0 -146 -127 -208 -257 -208c-150 0 -269 71 -265 233z" />
    <glyph glyph-name="currency" unicode="&#xa4;" 
d="M107 154l69 70c-33 43 -52 103 -52 168s17 131 52 173l-69 71l65 66l71 -70c44 33 110 54 176 54c65 0 128 -21 168 -54l71 70l64 -65l-64 -67c33 -45 56 -110 56 -176c0 -65 -23 -129 -58 -169l68 -70l-62 -67l-71 68c-42 -36 -106 -56 -172 -56c-69 0 -132 19 -177 57
l-70 -68zM419 516c-73 0 -125 -54 -125 -127c0 -74 53 -119 125 -119s125 45 125 119c0 73 -52 127 -125 127z" />
    <glyph glyph-name="quotesingle" unicode="'" horiz-adv-x="493" 
d="M336 381h-179l-40 373h259z" />
    <glyph glyph-name="quotedblleft" unicode="&#x201c;" horiz-adv-x="788" 
d="M532 754h202l-121 -373h-259zM232 754h202l-121 -373h-259z" />
    <glyph glyph-name="guillemotleft" unicode="&#xab;" horiz-adv-x="572" 
d="M305 104l-96 -65l-161 236l161 228l96 -70l-109 -158zM524 104l-96 -65l-161 236l161 228l96 -70l-109 -158z" />
    <glyph glyph-name="guilsinglleft" unicode="&#x2039;" horiz-adv-x="352" 
d="M304 104l-96 -65l-161 236l161 228l96 -70l-109 -158z" />
    <glyph glyph-name="guilsinglright" unicode="&#x203a;" horiz-adv-x="352" 
d="M144 39l-96 65l109 171l-109 158l96 70l161 -228z" />
    <glyph glyph-name="fi" unicode="&#xfb01;" horiz-adv-x="822" 
d="M497 0v531h258v-531h-258zM626 819c81 0 142 -47 142 -124c0 -87 -68 -125 -142 -125s-142 38 -142 125c0 77 61 124 142 124zM75 522v56c0 155 70 241 230 241c38 0 75 -6 113 -12v-205c-13 5 -23 9 -35 9c-44 0 -54 -36 -54 -71v-20l87 11v-207l-83 7v-331h-258v331
l-70 -7v207z" />
    <glyph glyph-name="fl" unicode="&#xfb02;" horiz-adv-x="803" 
d="M487 0v811h258v-811h-258zM75 522v56c0 155 70 241 230 241c38 0 75 -6 113 -12v-205c-13 5 -23 9 -35 9c-44 0 -54 -36 -54 -71v-20l87 11v-207l-83 7v-331h-258v331l-70 -7v207z" />
    <glyph glyph-name="endash" unicode="&#x2013;" horiz-adv-x="500" 
d="M0 165v220h500v-220h-500z" />
    <glyph glyph-name="dagger" unicode="&#x2020;" 
d="M302 -151v458h-212v197h212v250h228v-250h212v-197h-212v-458h-228z" />
    <glyph glyph-name="daggerdbl" unicode="&#x2021;" 
d="M302 -151v280h-194v166h194v113h-194v166h194v180h228v-180h194v-166h-194v-113h194v-166h-194v-280h-228z" />
    <glyph glyph-name="periodcentered" unicode="&#xb7;" horiz-adv-x="416" 
d="M208 430c71 0 130 -59 130 -130s-59 -130 -130 -130s-130 59 -130 130s59 130 130 130z" />
    <glyph glyph-name="paragraph" unicode="&#xb6;" 
d="M311 754h466v-190h-66v-783h-190v783h-54v-783h-190v450c-106 11 -210 92 -221 229c-13 166 97 294 255 294z" />
    <glyph glyph-name="bullet" unicode="&#x2022;" 
d="M417 566c108 0 188 -85 188 -189c0 -103 -80 -188 -188 -188s-189 85 -189 188c0 104 81 189 189 189z" />
    <glyph glyph-name="quotesinglbase" unicode="&#x201a;" horiz-adv-x="493" 
d="M258 -166h-201l121 373h259z" />
    <glyph glyph-name="quotedblbase" unicode="&#x201e;" horiz-adv-x="788" 
d="M255 -166h-201l121 373h259zM555 -166h-201l121 373h259z" />
    <glyph glyph-name="quotedblright" unicode="&#x201d;" horiz-adv-x="788" 
d="M255 381h-201l121 373h259zM555 381h-201l121 373h259z" />
    <glyph glyph-name="guillemotright" unicode="&#xbb;" horiz-adv-x="572" 
d="M363 39l-96 65l109 171l-109 158l96 70l161 -228zM144 39l-96 65l109 171l-109 158l96 70l161 -228z" />
    <glyph glyph-name="ellipsis" unicode="&#x2026;" horiz-adv-x="1000" 
d="M833 239c73 0 149 -47 149 -127c0 -79 -76 -124 -149 -124s-149 45 -149 124c0 80 76 127 149 127zM500 239c73 0 149 -47 149 -127c0 -79 -76 -124 -149 -124s-149 45 -149 124c0 80 76 127 149 127zM167 239c73 0 149 -47 149 -127c0 -79 -76 -124 -149 -124
s-149 45 -149 124c0 80 76 127 149 127z" />
    <glyph glyph-name="perthousand" unicode="&#x2030;" horiz-adv-x="1685" 
d="M882 404c133 0 240 -64 240 -206c0 -143 -115 -210 -240 -210s-240 67 -240 210c0 142 107 206 240 206zM882 254c-33 0 -48 -28 -48 -56c0 -29 15 -53 48 -53s48 24 48 53c0 28 -15 56 -48 56zM263 766c133 0 240 -64 240 -206c0 -143 -115 -210 -240 -210
s-240 67 -240 210c0 142 107 206 240 206zM263 616c-33 0 -48 -28 -48 -56c0 -29 15 -53 48 -53s48 24 48 53c0 28 -15 56 -48 56zM1422 404c133 0 240 -64 240 -206c0 -143 -115 -210 -240 -210s-240 67 -240 210c0 142 107 206 240 206zM1422 254c-33 0 -48 -28 -48 -56
c0 -29 15 -53 48 -53s48 24 48 53c0 28 -15 56 -48 56zM249 0l517 776h137l-513 -776h-141z" />
    <glyph glyph-name="questiondown" unicode="&#xbf;" horiz-adv-x="697" 
d="M431 299v-194c-17 5 -34 10 -51 10c-48 0 -89 -28 -89 -79c0 -29 18 -50 48 -50c33 0 51 33 52 64h257c-5 -165 -144 -271 -302 -271c-167 0 -304 96 -304 273c0 179 146 256 307 256c27 0 55 -3 82 -9zM343 608c73 0 149 -47 149 -127c0 -79 -76 -124 -149 -124
s-149 45 -149 124c0 80 76 127 149 127z" />
    <glyph glyph-name="grave" unicode="`" horiz-adv-x="420" 
d="M82 703l125 83l131 -165l-91 -62z" />
    <glyph glyph-name="acute" unicode="&#xb4;" horiz-adv-x="420" 
d="M213 786l125 -83l-165 -144l-91 62z" />
    <glyph glyph-name="circumflex" unicode="&#x2c6;" horiz-adv-x="600" 
d="M150 569l-48 102l200 115l197 -115l-47 -102l-150 73z" />
    <glyph glyph-name="tilde" unicode="&#x2dc;" horiz-adv-x="560" 
d="M163 580l-85 58c30 50 78 103 141 103c27 0 44 -9 67 -22c16 -9 36 -23 56 -23c26 0 40 27 49 46l91 -50c-26 -51 -70 -111 -134 -111c-21 0 -37 5 -56 13l-45 20c-9 4 -25 12 -36 12c-25 0 -39 -27 -48 -46z" />
    <glyph glyph-name="macron" unicode="&#xaf;" horiz-adv-x="600" 
d="M123 608v98h355v-98h-355z" />
    <glyph glyph-name="breve" unicode="&#x2d8;" horiz-adv-x="560" 
d="M92 756h78c17 -48 66 -60 110 -60s93 12 110 60h79c-6 -97 -90 -174 -189 -174s-179 71 -188 174z" />
    <glyph glyph-name="dotaccent" unicode="&#x2d9;" horiz-adv-x="420" 
d="M210 746c46 0 83 -37 83 -83s-37 -83 -83 -83s-83 37 -83 83s37 83 83 83z" />
    <glyph glyph-name="dieresis" unicode="&#xa8;" horiz-adv-x="620" 
d="M189 746c46 0 83 -37 83 -83s-37 -83 -83 -83s-83 37 -83 83s37 83 83 83zM432 746c46 0 83 -37 83 -83s-37 -83 -83 -83s-83 37 -83 83s37 83 83 83z" />
    <glyph glyph-name="ring" unicode="&#x2da;" horiz-adv-x="480" 
d="M240 799c75 0 154 -30 154 -116c0 -87 -81 -114 -154 -114s-154 27 -154 114c0 86 79 116 154 116zM240 727c-28 0 -59 -11 -59 -43s31 -43 59 -43s59 11 59 43s-31 43 -59 43z" />
    <glyph glyph-name="cedilla" unicode="&#xb8;" horiz-adv-x="420" 
d="M184 -249l-101 88l159 146l96 -82z" />
    <glyph glyph-name="hungarumlaut" unicode="&#x2dd;" horiz-adv-x="620" 
d="M156 778h135l-56 -211h-102zM352 778h135l-56 -211h-102z" />
    <glyph glyph-name="ogonek" unicode="&#x2db;" horiz-adv-x="420" 
d="M199 -15h75v-2c-22 -11 -68 -39 -68 -69c0 -29 27 -41 53 -41c24 0 38 9 54 26l2 -2l-26 -96c-21 -15 -51 -24 -77 -24c-54 0 -107 35 -107 93c0 55 50 93 94 115z" />
    <glyph glyph-name="caron" unicode="&#x2c7;" horiz-adv-x="600" 
d="M149 784l151 -71l151 71l48 -100l-199 -115l-199 115z" />
    <glyph glyph-name="emdash" unicode="&#x2014;" horiz-adv-x="1000" 
d="M130 165v220h740v-220h-740z" />
    <glyph glyph-name="AE" unicode="&#xc6;" horiz-adv-x="1060" 
d="M355 273h112l-42 154c-7 25 -9 50 -11 75h-8c-3 -30 -6 -58 -14 -87zM539 0l-26 96h-205l-24 -96h-288l263 754h530l70 -206h-225l24 -72h226l69 -196h-223l25 -74h226l72 -206h-514z" />
    <glyph glyph-name="ordfeminine" unicode="&#xaa;" horiz-adv-x="420" 
d="M170 599c0 -23 16 -44 42 -44c27 0 46 22 46 45c0 25 -18 42 -45 42c-26 0 -43 -20 -43 -43zM417 757v-317h-164l5 40h-4c-30 -30 -58 -49 -105 -49c-94 0 -146 88 -146 165c0 80 53 170 151 170c41 0 76 -16 100 -47h4l-5 38h164z" />
    <glyph glyph-name="Lslash" unicode="&#x141;" horiz-adv-x="649" 
d="M128 0v264l-91 -70v163l91 68v329h274v-149l120 91v-163l-120 -91v-200h228v-242h-502z" />
    <glyph glyph-name="Oslash" unicode="&#xd8;" horiz-adv-x="904" 
d="M325 305l189 199c-17 9 -38 14 -62 14c-87 0 -141 -67 -141 -147c0 -24 5 -46 14 -66zM574 446l-192 -203c20 -11 44 -17 70 -17c83 0 141 59 141 145c0 27 -6 52 -19 75zM26 -8l112 117c-64 65 -103 155 -103 266c0 237 188 391 417 391c92 0 178 -25 246 -69l118 123
l62 -54l-116 -122c66 -67 107 -159 107 -269c0 -242 -187 -387 -417 -387c-93 0 -178 23 -248 68l-116 -122z" />
    <glyph glyph-name="OE" unicode="&#x152;" horiz-adv-x="1186" 
d="M321 373c0 -75 62 -137 138 -137c88 0 137 61 137 146c0 86 -50 141 -138 141c-84 0 -137 -70 -137 -150zM615 0v95h-2c-50 -72 -146 -107 -232 -107c-208 0 -344 193 -344 388s137 390 346 390c89 0 184 -38 230 -117h2v105h506v-206h-233v-72h213v-196h-213v-74h242
v-206h-515z" />
    <glyph glyph-name="ordmasculine" unicode="&#xba;" horiz-adv-x="420" 
d="M210 766c114 0 209 -59 209 -171c0 -106 -101 -164 -209 -164s-209 58 -209 164c0 112 95 171 209 171zM210 642c-28 0 -47 -20 -47 -46c0 -24 21 -41 47 -41s47 17 47 41c0 26 -19 46 -47 46z" />
    <glyph glyph-name="ae" unicode="&#xe6;" horiz-adv-x="1140" 
d="M731 334h121c0 35 -26 68 -63 68c-39 0 -58 -32 -58 -68zM360 122c37 0 124 12 124 60c0 40 -92 47 -116 47c-35 0 -99 -6 -99 -54c0 -46 55 -53 91 -53zM1106 224h-375c0 -43 7 -91 61 -91c27 0 47 19 52 44h251c-34 -127 -177 -189 -299 -189c-91 0 -193 29 -252 90
c-73 -58 -165 -90 -258 -90c-113 0 -254 50 -254 183c0 138 119 183 239 183c54 0 106 -10 156 -26c6 77 -62 99 -126 99c-85 0 -167 -24 -247 -51v127c82 22 165 40 250 40c97 0 175 -14 240 -93c69 63 143 93 237 93c189 0 338 -121 325 -319z" />
    <glyph glyph-name="dotlessi" unicode="&#x131;" horiz-adv-x="392" 
d="M67 0v531h258v-531h-258z" />
    <glyph glyph-name="lslash" unicode="&#x142;" horiz-adv-x="489" 
d="M113 0v299l-82 -61v134l82 60v379h258v-223l87 63v-134l-87 -64v-453h-258z" />
    <glyph glyph-name="oslash" unicode="&#xf8;" horiz-adv-x="714" 
d="M41 -10l77 81c-50 44 -83 108 -83 188c0 186 147 284 322 284c65 0 127 -14 177 -40l84 87l50 -48l-76 -79c54 -47 87 -116 87 -204c0 -176 -156 -271 -322 -271c-65 0 -128 14 -180 42l-85 -89zM357 341c-43 0 -72 -35 -72 -78c0 -42 32 -73 72 -73s72 31 72 73
c0 43 -29 78 -72 78z" />
    <glyph glyph-name="oe" unicode="&#x153;" horiz-adv-x="1056" 
d="M647 334h121c0 35 -26 68 -63 68c-39 0 -58 -32 -58 -68zM1022 224h-375c0 -43 7 -91 61 -91c27 0 47 19 52 44h251c-34 -127 -177 -189 -299 -189c-70 4 -144 24 -190 73c-56 -46 -139 -73 -211 -73c-151 0 -282 115 -282 271c0 171 134 284 301 284
c62 0 155 -25 197 -74c53 51 124 74 178 74c181 0 330 -121 317 -319zM351 340c-43 0 -72 -34 -72 -77c0 -42 32 -72 72 -72s72 30 72 72c0 43 -29 77 -72 77z" />
    <glyph glyph-name="germandbls" unicode="&#xdf;" horiz-adv-x="769" 
d="M312 486v-486h-258v517c0 204 78 302 309 302c134 0 281 -59 281 -206c0 -71 -11 -115 -75 -155c100 -33 136 -125 136 -220c0 -165 -123 -238 -286 -238h-43v144c83 9 75 92 75 143c0 43 -25 73 -75 73v142c35 0 68 18 68 53c0 37 -22 50 -64 50c-72 0 -68 -72 -68 -119
z" />
    <glyph glyph-name="onesuperior" unicode="&#xb9;" horiz-adv-x="500" 
d="M124 608v143l252 7v-452h-177v307z" />
    <glyph glyph-name="logicalnot" unicode="&#xac;" horiz-adv-x="800" 
d="M100 312v200h600v-371h-200v171h-400z" />
    <glyph glyph-name="mu" unicode="&#xb5;" horiz-adv-x="697" 
d="M49 528h256v-274c0 -31 2 -64 44 -64s44 33 44 64v274h256v-300c0 -168 -146 -243 -270 -243c-45 0 -80 11 -104 19l30 -223h-256v747z" />
    <glyph glyph-name="trademark" unicode="&#x2122;" horiz-adv-x="950" 
d="M384 754v-98h-112v-316h-120v316h-111v98h343zM909 754v-414h-98v316h-2l-113 -316h-60l-113 316h-2v-316h-98v414h158l84 -239h2l84 239h158z" />
    <glyph glyph-name="Eth" unicode="&#xd0;" horiz-adv-x="827" 
d="M64 0v320h-60v107h60v327h279c253 0 447 -111 447 -388c0 -224 -158 -366 -379 -366h-347zM338 518v-91h70v-107h-70v-94h17c91 0 161 42 161 141c0 106 -61 151 -161 151h-17z" />
    <glyph glyph-name="onehalf" unicode="&#xbd;" horiz-adv-x="1248" 
d="M100 608v143l252 7v-452h-177v307zM661 0l196 161c30 25 108 88 108 129c0 20 -18 36 -40 36c-38 0 -43 -30 -44 -57h-174c13 132 76 191 224 191c102 0 210 -55 210 -160c0 -91 -86 -147 -172 -172v-5l84 11l95 6v-140h-487zM258 0l517 754h108l-514 -754h-111z" />
    <glyph glyph-name="plusminus" unicode="&#xb1;" horiz-adv-x="800" 
d="M300 556v101h200v-101h200v-200h-200v-101h-200v101h-200v200h200zM100 0v200h600v-200h-600z" />
    <glyph glyph-name="Thorn" unicode="&#xde;" horiz-adv-x="728" 
d="M326 448v-131h27c48 0 100 8 100 69c0 59 -56 62 -101 62h-26zM326 754v-100h83c176 0 306 -90 306 -277c0 -154 -96 -250 -249 -250h-140v-127h-264v754h264z" />
    <glyph glyph-name="onequarter" unicode="&#xbc;" horiz-adv-x="1248" 
d="M901 279l-63 -72v-2l86 4v68c0 12 3 25 8 37l-4 2c-7 -13 -17 -26 -27 -37zM1081 91l5 -91h-169l7 91l-249 -5v119l200 247h211v-243l62 4v-127zM285 0l517 754h109l-514 -754h-112zM100 608v143l252 7v-452h-177v307z" />
    <glyph glyph-name="divide" unicode="&#xf7;" horiz-adv-x="800" 
d="M100 200v200h600v-200h-600zM416 693c71 0 130 -59 130 -130s-59 -130 -130 -130s-130 59 -130 130s59 130 130 130zM416 167c71 0 130 -59 130 -130s-59 -130 -130 -130s-130 59 -130 130s59 130 130 130z" />
    <glyph glyph-name="brokenbar" unicode="&#xa6;" horiz-adv-x="728" 
d="M264 -89v250h200v-250h-200zM264 411v250h200v-250h-200z" />
    <glyph glyph-name="degree" unicode="&#xb0;" horiz-adv-x="500" 
d="M249 754c94 0 174 -78 174 -174c0 -94 -80 -171 -174 -171c-96 0 -171 77 -171 171c-3 96 75 174 171 174zM249 656c-41 0 -74 -34 -73 -74c0 -41 32 -75 74 -75s75 34 75 75c0 40 -33 74 -76 74z" />
    <glyph glyph-name="thorn" unicode="&#xfe;" horiz-adv-x="716" 
d="M363 341c-43 0 -66 -36 -66 -75c0 -40 23 -76 66 -76c40 0 67 42 67 78c0 37 -28 73 -67 73zM51 -219v1030h258v-237l-14 -127h9c22 61 92 96 159 96c149 0 221 -140 221 -273c0 -125 -78 -282 -223 -282c-58 0 -128 33 -157 85h-7l12 -85v-207h-258z" />
    <glyph glyph-name="threequarters" unicode="&#xbe;" horiz-adv-x="1248" 
d="M901 279l-63 -72v-2l86 4v68c0 12 3 25 8 37l-4 2c-7 -13 -17 -26 -27 -37zM1081 91l5 -91h-169l7 91l-249 -5v119l200 247h211v-243l62 4v-127zM343 0l517 754h109l-514 -754h-112zM100 465h179c-1 -27 21 -51 51 -51c24 0 48 18 48 41s-21 42 -45 42
c-8 0 -16 -1 -24 -2v94l14 -1c20 -2 37 14 37 32c0 19 -15 30 -34 30c-20 0 -33 -17 -31 -35h-176c11 114 100 151 212 151c83 0 202 -35 202 -130c0 -37 -23 -72 -60 -87v-4c51 -12 81 -54 81 -102c0 -110 -125 -144 -222 -144c-119 0 -227 42 -232 166z" />
    <glyph glyph-name="twosuperior" unicode="&#xb2;" horiz-adv-x="500" 
d="M7 306l196 161c30 25 108 88 108 129c0 20 -18 36 -40 36c-38 0 -43 -30 -44 -57h-174c13 132 76 191 224 191c102 0 210 -55 210 -160c0 -91 -86 -147 -172 -172v-5l84 11l95 6v-140h-487z" />
    <glyph glyph-name="registered" unicode="&#xae;" horiz-adv-x="800" 
d="M400 -15c-218 0 -391 174 -391 391c0 216 173 390 391 390c217 0 391 -174 391 -390c0 -217 -174 -391 -391 -391zM400 87c167 0 289 115 289 289s-122 288 -289 288c-170 0 -289 -114 -289 -288s119 -289 289 -289zM483 345l99 -173h-101l-91 173h-66v-173h-86v409h198
c87 0 139 -29 139 -125c0 -70 -40 -106 -92 -111zM324 423h93c43 0 80 0 80 44c0 36 -37 36 -80 36h-93v-80z" />
    <glyph glyph-name="minus" unicode="&#x2212;" horiz-adv-x="800" 
d="M100 200v200h600v-200h-600z" />
    <glyph glyph-name="eth" unicode="&#xf0;" horiz-adv-x="714" 
d="M132 726l161 96c46 -25 64 -36 103 -64l124 63l61 -64l-111 -57c192 -163 209 -306 209 -389c0 -222 -165 -323 -325 -323c-139 0 -319 79 -319 276c0 175 139 265 274 265c42 0 69 -8 85 -12c-35 43 -74 77 -97 96l-131 -67l-61 64l117 59c-29 21 -58 39 -90 57z
M357 341c-43 0 -72 -35 -72 -78c0 -42 32 -73 72 -73s72 31 72 73c0 43 -29 78 -72 78z" />
    <glyph glyph-name="multiply" unicode="&#xd7;" horiz-adv-x="800" 
d="M259 300l-159 159l142 141l158 -159l159 159l141 -141l-158 -159l158 -159l-141 -141l-159 159l-158 -159l-142 141z" />
    <glyph glyph-name="threesuperior" unicode="&#xb3;" horiz-adv-x="500" 
d="M23 465h179c-1 -27 21 -51 51 -51c24 0 48 18 48 41s-21 42 -45 42c-8 0 -16 -1 -24 -2v94l14 -1c20 -2 37 14 37 32c0 19 -15 30 -34 30c-20 0 -33 -17 -31 -35h-176c11 114 100 151 212 151c83 0 202 -35 202 -130c0 -37 -23 -72 -60 -87v-4c51 -12 81 -54 81 -102
c0 -110 -125 -144 -222 -144c-119 0 -227 42 -232 166z" />
    <glyph glyph-name="copyright" unicode="&#xa9;" horiz-adv-x="800" 
d="M400 -15c-218 0 -391 174 -391 391c0 216 173 390 391 390c217 0 391 -174 391 -390c0 -217 -174 -391 -391 -391zM400 87c167 0 289 115 289 289s-122 288 -289 288c-170 0 -289 -114 -289 -288s119 -289 289 -289zM599 457h-93c-8 48 -44 70 -93 70
c-77 0 -111 -68 -111 -146c0 -74 39 -149 114 -149c47 0 87 26 90 74h93c-11 -95 -92 -152 -183 -152c-130 0 -216 99 -216 225c0 130 81 226 214 226c94 0 168 -56 185 -148z" />
    <glyph glyph-name="Aacute" unicode="&#xc1;" horiz-adv-x="823" 
d="M306 94l-22 -94h-290l262 754h303l269 -754h-290l-25 94h-207zM355 273h110l-32 133c-8 32 -13 65 -18 97h-10zM415 1009l125 -83l-165 -144l-91 62z" />
    <glyph glyph-name="Acircumflex" unicode="&#xc2;" horiz-adv-x="823" 
d="M306 94l-22 -94h-290l262 754h303l269 -754h-290l-25 94h-207zM355 273h110l-32 133c-8 32 -13 65 -18 97h-10zM262 792l-48 102l200 115l197 -115l-47 -102l-150 73z" />
    <glyph glyph-name="Adieresis" unicode="&#xc4;" horiz-adv-x="823" 
d="M306 94l-22 -94h-290l262 754h303l269 -754h-290l-25 94h-207zM355 273h110l-32 133c-8 32 -13 65 -18 97h-10zM291 969c46 0 83 -37 83 -83s-37 -83 -83 -83s-83 37 -83 83s37 83 83 83zM534 969c46 0 83 -37 83 -83s-37 -83 -83 -83s-83 37 -83 83s37 83 83 83z" />
    <glyph glyph-name="Agrave" unicode="&#xc0;" horiz-adv-x="823" 
d="M306 94l-22 -94h-290l262 754h303l269 -754h-290l-25 94h-207zM355 273h110l-32 133c-8 32 -13 65 -18 97h-10zM284 926l125 83l131 -165l-91 -62z" />
    <glyph glyph-name="Aring" unicode="&#xc5;" horiz-adv-x="823" 
d="M306 94l-22 -94h-290l262 754h303l269 -754h-290l-25 94h-207zM355 273h110l-32 133c-8 32 -13 65 -18 97h-10zM412 999c75 0 154 -30 154 -116c0 -87 -81 -114 -154 -114s-154 27 -154 114c0 86 79 116 154 116zM412 927c-28 0 -59 -11 -59 -43s31 -43 59 -43
s59 11 59 43s-31 43 -59 43z" />
    <glyph glyph-name="Atilde" unicode="&#xc3;" horiz-adv-x="823" 
d="M306 94l-22 -94h-290l262 754h303l269 -754h-290l-25 94h-207zM355 273h110l-32 133c-8 32 -13 65 -18 97h-10zM295 803l-85 58c30 50 78 103 141 103c27 0 44 -9 67 -22c16 -9 36 -23 56 -23c26 0 40 27 49 46l91 -50c-26 -51 -70 -111 -134 -111c-21 0 -37 5 -56 13
l-45 20c-9 4 -25 12 -36 12c-25 0 -39 -27 -48 -46z" />
    <glyph glyph-name="Ccedilla" unicode="&#xc7;" horiz-adv-x="656" 
d="M613 735l8 -287c-44 41 -99 76 -161 76c-82 0 -149 -65 -149 -147c0 -83 71 -147 153 -147c63 0 113 27 157 70l-8 -282c-44 -21 -146 -30 -195 -30c-215 0 -383 167 -383 382c0 220 173 396 394 396c62 0 126 -11 184 -31zM302 -249l-101 88l159 146l96 -82z" />
    <glyph glyph-name="Eacute" unicode="&#xc9;" horiz-adv-x="624" 
d="M58 0v754h507v-206h-231v-72h211v-196h-211v-74h239v-206h-515zM315 1009l125 -83l-165 -144l-91 62z" />
    <glyph glyph-name="Ecircumflex" unicode="&#xca;" horiz-adv-x="624" 
d="M58 0v754h507v-206h-231v-72h211v-196h-211v-74h239v-206h-515zM162 792l-48 102l200 115l197 -115l-47 -102l-150 73z" />
    <glyph glyph-name="Edieresis" unicode="&#xcb;" horiz-adv-x="624" 
d="M58 0v754h507v-206h-231v-72h211v-196h-211v-74h239v-206h-515zM191 969c46 0 83 -37 83 -83s-37 -83 -83 -83s-83 37 -83 83s37 83 83 83zM434 969c46 0 83 -37 83 -83s-37 -83 -83 -83s-83 37 -83 83s37 83 83 83z" />
    <glyph glyph-name="Egrave" unicode="&#xc8;" horiz-adv-x="624" 
d="M58 0v754h507v-206h-231v-72h211v-196h-211v-74h239v-206h-515zM184 926l125 83l131 -165l-91 -62z" />
    <glyph glyph-name="Iacute" unicode="&#xcd;" horiz-adv-x="403" 
d="M64 0v754h274v-754h-274zM220 1009l125 -83l-165 -144l-91 62z" />
    <glyph glyph-name="Icircumflex" unicode="&#xce;" horiz-adv-x="403" 
d="M64 0v754h274v-754h-274zM52 792l-48 102l200 115l197 -115l-47 -102l-150 73z" />
    <glyph glyph-name="Idieresis" unicode="&#xcf;" horiz-adv-x="403" 
d="M64 0v754h274v-754h-274zM81 969c46 0 83 -37 83 -83s-37 -83 -83 -83s-83 37 -83 83s37 83 83 83zM324 969c46 0 83 -37 83 -83s-37 -83 -83 -83s-83 37 -83 83s37 83 83 83z" />
    <glyph glyph-name="Igrave" unicode="&#xcc;" horiz-adv-x="403" 
d="M64 0v754h274v-754h-274zM58 926l125 83l131 -165l-91 -62z" />
    <glyph glyph-name="Ntilde" unicode="&#xd1;" horiz-adv-x="872" 
d="M58 0v754h263l246 -418h8c-11 63 -23 128 -23 192v226h262v-754h-262l-241 396h-8c9 -52 17 -101 17 -151v-245h-262zM319 803l-85 58c30 50 78 103 141 103c27 0 44 -9 67 -22c16 -9 36 -23 56 -23c26 0 40 27 49 46l91 -50c-26 -51 -70 -111 -134 -111
c-21 0 -37 5 -56 13l-45 20c-9 4 -25 12 -36 12c-25 0 -39 -27 -48 -46z" />
    <glyph glyph-name="Oacute" unicode="&#xd3;" horiz-adv-x="904" 
d="M452 766c229 0 417 -154 417 -391c0 -242 -187 -387 -417 -387s-417 145 -417 387c0 237 188 391 417 391zM452 518c-87 0 -141 -67 -141 -147c0 -86 58 -145 141 -145s141 59 141 145c0 80 -54 147 -141 147zM455 1009l125 -83l-165 -144l-91 62z" />
    <glyph glyph-name="Ocircumflex" unicode="&#xd4;" horiz-adv-x="904" 
d="M452 766c229 0 417 -154 417 -391c0 -242 -187 -387 -417 -387s-417 145 -417 387c0 237 188 391 417 391zM452 518c-87 0 -141 -67 -141 -147c0 -86 58 -145 141 -145s141 59 141 145c0 80 -54 147 -141 147zM302 792l-48 102l200 115l197 -115l-47 -102l-150 73z" />
    <glyph glyph-name="Odieresis" unicode="&#xd6;" horiz-adv-x="904" 
d="M452 766c229 0 417 -154 417 -391c0 -242 -187 -387 -417 -387s-417 145 -417 387c0 237 188 391 417 391zM452 518c-87 0 -141 -67 -141 -147c0 -86 58 -145 141 -145s141 59 141 145c0 80 -54 147 -141 147zM331 969c46 0 83 -37 83 -83s-37 -83 -83 -83s-83 37 -83 83
s37 83 83 83zM574 969c46 0 83 -37 83 -83s-37 -83 -83 -83s-83 37 -83 83s37 83 83 83z" />
    <glyph glyph-name="Ograve" unicode="&#xd2;" horiz-adv-x="904" 
d="M452 766c229 0 417 -154 417 -391c0 -242 -187 -387 -417 -387s-417 145 -417 387c0 237 188 391 417 391zM452 518c-87 0 -141 -67 -141 -147c0 -86 58 -145 141 -145s141 59 141 145c0 80 -54 147 -141 147zM324 926l125 83l131 -165l-91 -62z" />
    <glyph glyph-name="Otilde" unicode="&#xd5;" horiz-adv-x="904" 
d="M452 766c229 0 417 -154 417 -391c0 -242 -187 -387 -417 -387s-417 145 -417 387c0 237 188 391 417 391zM452 518c-87 0 -141 -67 -141 -147c0 -86 58 -145 141 -145s141 59 141 145c0 80 -54 147 -141 147zM335 803l-85 58c30 50 78 103 141 103c27 0 44 -9 67 -22
c16 -9 36 -23 56 -23c26 0 40 27 49 46l91 -50c-26 -51 -70 -111 -134 -111c-21 0 -37 5 -56 13l-45 20c-9 4 -25 12 -36 12c-25 0 -39 -27 -48 -46z" />
    <glyph glyph-name="Scaron" unicode="&#x160;" horiz-adv-x="663" 
d="M23 57l84 213l14 -11c49 -38 108 -69 171 -69c27 0 70 11 70 45s-36 37 -61 42l-55 10c-107 19 -197 82 -197 200c0 179 163 279 327 279c86 0 165 -21 239 -66l-74 -193c-47 32 -100 57 -159 57c-24 0 -59 -9 -59 -40c0 -28 34 -32 55 -37l62 -14
c116 -26 200 -88 200 -216c0 -180 -164 -269 -327 -269c-95 0 -205 26 -290 69zM181 1007l151 -71l151 71l48 -100l-199 -115l-199 115z" />
    <glyph glyph-name="Uacute" unicode="&#xda;" horiz-adv-x="815" 
d="M482 754h274v-446c0 -220 -138 -320 -349 -320s-349 100 -349 320v446h274v-420c0 -59 2 -111 75 -111s75 52 75 111v420zM431 1009l125 -83l-165 -144l-91 62z" />
    <glyph glyph-name="Ucircumflex" unicode="&#xdb;" horiz-adv-x="815" 
d="M482 754h274v-446c0 -220 -138 -320 -349 -320s-349 100 -349 320v446h274v-420c0 -59 2 -111 75 -111s75 52 75 111v420zM258 792l-48 102l200 115l197 -115l-47 -102l-150 73z" />
    <glyph glyph-name="Udieresis" unicode="&#xdc;" horiz-adv-x="815" 
d="M482 754h274v-446c0 -220 -138 -320 -349 -320s-349 100 -349 320v446h274v-420c0 -59 2 -111 75 -111s75 52 75 111v420zM287 969c46 0 83 -37 83 -83s-37 -83 -83 -83s-83 37 -83 83s37 83 83 83zM530 969c46 0 83 -37 83 -83s-37 -83 -83 -83s-83 37 -83 83
s37 83 83 83z" />
    <glyph glyph-name="Ugrave" unicode="&#xd9;" horiz-adv-x="815" 
d="M482 754h274v-446c0 -220 -138 -320 -349 -320s-349 100 -349 320v446h274v-420c0 -59 2 -111 75 -111s75 52 75 111v420zM260 926l125 83l131 -165l-91 -62z" />
    <glyph glyph-name="Yacute" unicode="&#xdd;" horiz-adv-x="773" 
d="M-8 754h310l84 -197h8c8 24 15 48 25 71l54 126h308l-258 -429v-325h-268v325zM410 1009l125 -83l-165 -144l-91 62z" />
    <glyph glyph-name="Ydieresis" unicode="&#x178;" horiz-adv-x="773" 
d="M-8 754h310l84 -197h8c8 24 15 48 25 71l54 126h308l-258 -429v-325h-268v325zM276 969c46 0 83 -37 83 -83s-37 -83 -83 -83s-83 37 -83 83s37 83 83 83zM519 969c46 0 83 -37 83 -83s-37 -83 -83 -83s-83 37 -83 83s37 83 83 83z" />
    <glyph glyph-name="Zcaron" unicode="&#x17d;" horiz-adv-x="771" 
d="M67 754h702l-328 -521l3 -4c21 2 43 4 64 4h228v-233h-734l272 441c20 33 43 61 67 91l-4 3c-21 -5 -42 -9 -65 -9h-205v228zM250 1007l151 -71l151 71l48 -100l-199 -115l-199 115z" />
    <glyph glyph-name="aacute" unicode="&#xe1;" horiz-adv-x="720" 
d="M288 268c0 -42 20 -78 67 -78c49 0 69 39 69 80s-28 71 -69 71s-67 -34 -67 -73zM416 0l8 70h-6c-47 -50 -89 -82 -162 -82c-144 0 -224 146 -224 275c0 134 81 280 231 280c64 0 117 -23 155 -75h6l-8 63h253v-531h-253zM383 786l125 -83l-165 -144l-91 62z" />
    <glyph glyph-name="acircumflex" unicode="&#xe2;" horiz-adv-x="720" 
d="M288 268c0 -42 20 -78 67 -78c49 0 69 39 69 80s-28 71 -69 71s-67 -34 -67 -73zM416 0l8 70h-6c-47 -50 -89 -82 -162 -82c-144 0 -224 146 -224 275c0 134 81 280 231 280c64 0 117 -23 155 -75h6l-8 63h253v-531h-253zM220 569l-48 102l200 115l197 -115l-47 -102
l-150 73z" />
    <glyph glyph-name="adieresis" unicode="&#xe4;" horiz-adv-x="720" 
d="M416 0l8 70h-6c-47 -50 -89 -82 -162 -82c-144 0 -224 146 -224 275c0 134 81 280 231 280c64 0 117 -23 155 -75h6l-8 63h253v-531h-253zM288 268c0 -42 20 -78 67 -78c49 0 69 39 69 80s-28 71 -69 71s-67 -34 -67 -73zM494 746c46 0 83 -37 83 -83s-37 -83 -83 -83
s-83 37 -83 83s37 83 83 83zM251 746c46 0 83 -37 83 -83s-37 -83 -83 -83s-83 37 -83 83s37 83 83 83z" />
    <glyph glyph-name="agrave" unicode="&#xe0;" horiz-adv-x="720" 
d="M288 268c0 -42 20 -78 67 -78c49 0 69 39 69 80s-28 71 -69 71s-67 -34 -67 -73zM416 0l8 70h-6c-47 -50 -89 -82 -162 -82c-144 0 -224 146 -224 275c0 134 81 280 231 280c64 0 117 -23 155 -75h6l-8 63h253v-531h-253zM232 703l125 83l131 -165l-91 -62z" />
    <glyph glyph-name="aring" unicode="&#xe5;" horiz-adv-x="720" 
d="M288 268c0 -42 20 -78 67 -78c49 0 69 39 69 80s-28 71 -69 71s-67 -34 -67 -73zM416 0l8 70h-6c-47 -50 -89 -82 -162 -82c-144 0 -224 146 -224 275c0 134 81 280 231 280c64 0 117 -23 155 -75h6l-8 63h253v-531h-253zM372 799c75 0 154 -30 154 -116
c0 -87 -81 -114 -154 -114s-154 27 -154 114c0 86 79 116 154 116zM372 727c-28 0 -59 -11 -59 -43s31 -43 59 -43s59 11 59 43s-31 43 -59 43z" />
    <glyph glyph-name="atilde" unicode="&#xe3;" horiz-adv-x="720" 
d="M288 268c0 -42 20 -78 67 -78c49 0 69 39 69 80s-28 71 -69 71s-67 -34 -67 -73zM416 0l8 70h-6c-47 -50 -89 -82 -162 -82c-144 0 -224 146 -224 275c0 134 81 280 231 280c64 0 117 -23 155 -75h6l-8 63h253v-531h-253zM255 580l-85 58c30 50 78 103 141 103
c27 0 44 -9 67 -22c16 -9 36 -23 56 -23c26 0 40 27 49 46l91 -50c-26 -51 -70 -111 -134 -111c-21 0 -37 5 -56 13l-45 20c-9 4 -25 12 -36 12c-25 0 -39 -27 -48 -46z" />
    <glyph glyph-name="ccedilla" unicode="&#xe7;" horiz-adv-x="514" 
d="M466 516v-215c-27 23 -58 44 -95 44c-47 0 -81 -31 -81 -79c0 -42 34 -76 76 -76c40 0 70 20 100 41l-11 -218c-40 -13 -85 -25 -130 -25c-172 0 -295 97 -295 275c0 157 115 280 274 280c54 0 110 -10 162 -27zM231 -249l-101 88l159 146l96 -82z" />
    <glyph glyph-name="eacute" unicode="&#xe9;" horiz-adv-x="698" 
d="M664 222h-375c0 -43 7 -91 61 -91c27 0 47 19 52 44h251c-34 -128 -177 -187 -299 -187c-167 0 -320 86 -320 269c0 176 136 286 305 286c189 0 338 -122 325 -321zM289 332h121c0 36 -26 69 -63 69c-39 0 -58 -32 -58 -69zM352 786l125 -83l-165 -144l-91 62z" />
    <glyph glyph-name="ecircumflex" unicode="&#xea;" horiz-adv-x="698" 
d="M664 222h-375c0 -43 7 -91 61 -91c27 0 47 19 52 44h251c-34 -128 -177 -187 -299 -187c-167 0 -320 86 -320 269c0 176 136 286 305 286c189 0 338 -122 325 -321zM289 332h121c0 36 -26 69 -63 69c-39 0 -58 -32 -58 -69zM199 569l-48 102l200 115l197 -115l-47 -102
l-150 73z" />
    <glyph glyph-name="edieresis" unicode="&#xeb;" horiz-adv-x="698" 
d="M664 222h-375c0 -43 7 -91 61 -91c27 0 47 19 52 44h251c-34 -128 -177 -187 -299 -187c-167 0 -320 86 -320 269c0 176 136 286 305 286c189 0 338 -122 325 -321zM289 332h121c0 36 -26 69 -63 69c-39 0 -58 -32 -58 -69zM228 746c46 0 83 -37 83 -83s-37 -83 -83 -83
s-83 37 -83 83s37 83 83 83zM471 746c46 0 83 -37 83 -83s-37 -83 -83 -83s-83 37 -83 83s37 83 83 83z" />
    <glyph glyph-name="egrave" unicode="&#xe8;" horiz-adv-x="698" 
d="M664 222h-375c0 -43 7 -91 61 -91c27 0 47 19 52 44h251c-34 -128 -177 -187 -299 -187c-167 0 -320 86 -320 269c0 176 136 286 305 286c189 0 338 -122 325 -321zM289 332h121c0 36 -26 69 -63 69c-39 0 -58 -32 -58 -69zM221 703l125 83l131 -165l-91 -62z" />
    <glyph glyph-name="iacute" unicode="&#xed;" horiz-adv-x="392" 
d="M67 0v531h258v-531h-258zM214 786l125 -83l-165 -144l-91 62z" />
    <glyph glyph-name="icircumflex" unicode="&#xee;" horiz-adv-x="392" 
d="M67 0v531h258v-531h-258zM46 569l-48 102l200 115l197 -115l-47 -102l-150 73z" />
    <glyph glyph-name="idieresis" unicode="&#xef;" horiz-adv-x="392" 
d="M67 0v531h258v-531h-258zM75 746c46 0 83 -37 83 -83s-37 -83 -83 -83s-83 37 -83 83s37 83 83 83zM318 746c46 0 83 -37 83 -83s-37 -83 -83 -83s-83 37 -83 83s37 83 83 83z" />
    <glyph glyph-name="igrave" unicode="&#xec;" horiz-adv-x="392" 
d="M67 0v531h258v-531h-258zM53 703l125 83l131 -165l-91 -62z" />
    <glyph glyph-name="ntilde" unicode="&#xf1;" horiz-adv-x="703" 
d="M302 531l-10 -85h6c50 58 88 97 171 97c132 0 184 -99 184 -216v-327h-258v259c0 31 0 75 -44 75c-43 0 -43 -44 -43 -75v-259h-258v531h252zM235 580l-85 58c30 50 78 103 141 103c27 0 44 -9 67 -22c16 -9 36 -23 56 -23c26 0 40 27 49 46l91 -50
c-26 -51 -70 -111 -134 -111c-21 0 -37 5 -56 13l-45 20c-9 4 -25 12 -36 12c-25 0 -39 -27 -48 -46z" />
    <glyph glyph-name="oacute" unicode="&#xf3;" horiz-adv-x="714" 
d="M357 543c175 0 322 -98 322 -284c0 -176 -156 -271 -322 -271s-322 95 -322 271c0 186 147 284 322 284zM357 341c-43 0 -72 -35 -72 -78c0 -42 32 -73 72 -73s72 31 72 73c0 43 -29 78 -72 78zM375 786l125 -83l-165 -144l-91 62z" />
    <glyph glyph-name="ocircumflex" unicode="&#xf4;" horiz-adv-x="714" 
d="M357 543c175 0 322 -98 322 -284c0 -176 -156 -271 -322 -271s-322 95 -322 271c0 186 147 284 322 284zM357 341c-43 0 -72 -35 -72 -78c0 -42 32 -73 72 -73s72 31 72 73c0 43 -29 78 -72 78zM207 569l-48 102l200 115l197 -115l-47 -102l-150 73z" />
    <glyph glyph-name="odieresis" unicode="&#xf6;" horiz-adv-x="714" 
d="M357 543c175 0 322 -98 322 -284c0 -176 -156 -271 -322 -271s-322 95 -322 271c0 186 147 284 322 284zM357 341c-43 0 -72 -35 -72 -78c0 -42 32 -73 72 -73s72 31 72 73c0 43 -29 78 -72 78zM236 746c46 0 83 -37 83 -83s-37 -83 -83 -83s-83 37 -83 83s37 83 83 83z
M479 746c46 0 83 -37 83 -83s-37 -83 -83 -83s-83 37 -83 83s37 83 83 83z" />
    <glyph glyph-name="ograve" unicode="&#xf2;" horiz-adv-x="714" 
d="M357 543c175 0 322 -98 322 -284c0 -176 -156 -271 -322 -271s-322 95 -322 271c0 186 147 284 322 284zM357 341c-43 0 -72 -35 -72 -78c0 -42 32 -73 72 -73s72 31 72 73c0 43 -29 78 -72 78zM214 703l125 83l131 -165l-91 -62z" />
    <glyph glyph-name="otilde" unicode="&#xf5;" horiz-adv-x="714" 
d="M357 543c175 0 322 -98 322 -284c0 -176 -156 -271 -322 -271s-322 95 -322 271c0 186 147 284 322 284zM357 341c-43 0 -72 -35 -72 -78c0 -42 32 -73 72 -73s72 31 72 73c0 43 -29 78 -72 78zM240 580l-85 58c30 50 78 103 141 103c27 0 44 -9 67 -22
c16 -9 36 -23 56 -23c26 0 40 27 49 46l91 -50c-26 -51 -70 -111 -134 -111c-21 0 -37 5 -56 13l-45 20c-9 4 -25 12 -36 12c-25 0 -39 -27 -48 -46z" />
    <glyph glyph-name="scaron" unicode="&#x161;" horiz-adv-x="533" 
d="M9 47l66 160l16 -10c36 -22 88 -49 132 -49c17 0 38 9 38 29c0 29 -31 30 -52 33c-86 12 -166 47 -166 147c0 133 134 186 248 186c66 0 148 -13 206 -45l-63 -147c-33 24 -77 44 -119 44c-16 0 -37 -5 -37 -24c0 -26 28 -28 64 -34c92 -15 167 -47 167 -154
c0 -138 -137 -195 -257 -195c-84 0 -166 26 -243 59zM116 784l151 -71l151 71l48 -100l-199 -115l-199 115z" />
    <glyph glyph-name="uacute" unicode="&#xfa;" horiz-adv-x="697" 
d="M49 531h256v-274c0 -31 2 -64 44 -64s44 33 44 64v274h256v-300c0 -168 -146 -243 -300 -243s-300 75 -300 243v300zM372 786l125 -83l-165 -144l-91 62z" />
    <glyph glyph-name="ucircumflex" unicode="&#xfb;" horiz-adv-x="697" 
d="M49 531h256v-274c0 -31 2 -64 44 -64s44 33 44 64v274h256v-300c0 -168 -146 -243 -300 -243s-300 75 -300 243v300zM199 569l-48 102l200 115l197 -115l-47 -102l-150 73z" />
    <glyph glyph-name="udieresis" unicode="&#xfc;" horiz-adv-x="697" 
d="M49 531h256v-274c0 -31 2 -64 44 -64s44 33 44 64v274h256v-300c0 -168 -146 -243 -300 -243s-300 75 -300 243v300zM228 746c46 0 83 -37 83 -83s-37 -83 -83 -83s-83 37 -83 83s37 83 83 83zM471 746c46 0 83 -37 83 -83s-37 -83 -83 -83s-83 37 -83 83s37 83 83 83z
" />
    <glyph glyph-name="ugrave" unicode="&#xf9;" horiz-adv-x="697" 
d="M49 531h256v-274c0 -31 2 -64 44 -64s44 33 44 64v274h256v-300c0 -168 -146 -243 -300 -243s-300 75 -300 243v300zM201 703l125 83l131 -165l-91 -62z" />
    <glyph glyph-name="yacute" unicode="&#xfd;" horiz-adv-x="658" 
d="M-22 531h278l59 -208l15 -81h7l13 81l59 208h271l-340 -750h-272l137 272zM352 786l125 -83l-165 -144l-91 62z" />
    <glyph glyph-name="ydieresis" unicode="&#xff;" horiz-adv-x="658" 
d="M-22 531h278l59 -208l15 -81h7l13 81l59 208h271l-340 -750h-272l137 272zM223 746c46 0 83 -37 83 -83s-37 -83 -83 -83s-83 37 -83 83s37 83 83 83zM466 746c46 0 83 -37 83 -83s-37 -83 -83 -83s-83 37 -83 83s37 83 83 83z" />
    <glyph glyph-name="zcaron" unicode="&#x17e;" horiz-adv-x="605" 
d="M589 501l-158 -234l-55 -67v-6l53 6h147v-200h-560v36l157 238l53 60v4l-59 -7h-125v200h547v-30zM152 784l151 -71l151 71l48 -100l-199 -115l-199 115z" />
    <glyph glyph-name="Omega" unicode="&#x2126;" horiz-adv-x="1002" 
d="M224 165v4c-73 41 -164 127 -164 263c0 183 167 329 442 329c274 0 440 -142 440 -332c0 -131 -75 -201 -169 -260v-4h183v-165h-421v129c102 66 169 132 169 259c0 118 -80 211 -200 211c-110 0 -204 -76 -204 -214c0 -109 65 -205 170 -256v-129h-424v165h178z" />
    <glyph glyph-name="uni03BC" unicode="&#x3bc;" horiz-adv-x="697" 
d="M49 528h256v-274c0 -31 2 -64 44 -64s44 33 44 64v274h256v-300c0 -168 -146 -243 -270 -243c-45 0 -80 11 -104 19l30 -223h-256v747z" />
    <glyph glyph-name="pi" unicode="&#x3c0;" horiz-adv-x="847" 
d="M813 399h-79v-203c0 -77 6 -158 15 -196h-232c-18 20 -22 107 -22 177v222h-124c0 -135 -28 -332 -64 -399h-233c33 102 67 286 63 399c-34 0 -82 -1 -118 -9l-20 131c26 29 104 44 243 44h591z" />
    <glyph glyph-name="Euro" unicode="&#x20ac;" 
d="M751 717v-176c-28 24 -90 47 -189 47c-126 0 -174 -49 -193 -107h325l-44 -92h-291c-1 -6 -1 -18 -1 -23c0 -11 1 -23 2 -30h265l-43 -92h-203c20 -51 71 -80 183 -80c75 0 157 23 189 48v-180c-31 -19 -98 -43 -212 -43c-261 0 -375 94 -413 255h-111l44 92h56
c-1 9 -1 17 -1 27c0 9 0 16 1 26h-100l44 92h64c40 159 139 284 416 284c111 0 185 -28 212 -48z" />
    <glyph glyph-name="afii61289" unicode="&#x2113;" horiz-adv-x="766" 
d="M636 260l98 -97c-84 -129 -216 -172 -332 -172c-127 0 -207 38 -249 150c-1 2 -1 5 -2 7c-22 -13 -32 -19 -53 -30l-64 108c33 20 75 45 112 67v197c0 230 94 331 267 331c158 0 231 -97 231 -206c0 -138 -97 -238 -274 -367l2 -11c7 -37 37 -67 90 -67
c66 0 131 41 174 90zM370 563v-135c65 60 103 132 103 187c0 43 -17 67 -46 67c-31 0 -57 -31 -57 -119z" />
    <glyph glyph-name="estimated" unicode="&#x212e;" horiz-adv-x="938" 
d="M901 366h-700c-4 0 -6 -1 -6 -4v-212c0 -9 4 -17 9 -24c68 -71 161 -115 265 -115c112 0 211 50 279 128h62c-77 -91 -203 -150 -342 -150c-238 0 -432 173 -432 388s194 389 432 389c239 0 433 -174 433 -389v-11zM742 394v213c0 9 -4 18 -11 25
c-67 67 -160 110 -262 110s-196 -44 -263 -113c-7 -7 -11 -17 -11 -27v-208c0 -3 2 -7 6 -7h536c4 0 5 4 5 7z" />
    <glyph glyph-name="partialdiff" unicode="&#x2202;" horiz-adv-x="795" 
d="M123 634l-67 141c34 20 132 72 281 72c244 0 416 -173 416 -423c0 -277 -186 -433 -416 -433c-214 0 -307 158 -307 265c0 150 108 284 296 284c109 0 173 -60 197 -93h1c1 3 1 10 1 13c0 111 -69 219 -217 219c-92 0 -158 -32 -185 -45zM363 155h1c72 0 127 71 137 139
c-7 32 -48 87 -117 87c-73 0 -122 -53 -122 -125c0 -63 46 -101 101 -101z" />
    <glyph glyph-name="product" unicode="&#x220f;" horiz-adv-x="960" 
d="M941 568h-132v-671h-224v671h-212v-671h-224v671h-131v180h923v-180z" />
    <glyph glyph-name="summation" unicode="&#x2211;" horiz-adv-x="764" 
d="M750 -103h-727v115l286 303l-269 295v138h677v-180h-357v-5l211 -228l-234 -253v-6h413v-179z" />
    <glyph glyph-name="uni2219" unicode="&#x2219;" horiz-adv-x="416" 
d="M208 430c71 0 130 -59 130 -130s-59 -130 -130 -130s-130 59 -130 130s59 130 130 130z" />
    <glyph glyph-name="radical" unicode="&#x221a;" horiz-adv-x="811" 
d="M852 893l-317 -1058h-174l-206 456l-91 -38l-37 100l259 108l130 -332c13 -32 24 -64 34 -94h2c7 27 15 61 25 99l213 759h162z" />
    <glyph glyph-name="infinity" unicode="&#x221e;" horiz-adv-x="901" 
d="M852 312v-1c0 -136 -98 -213 -198 -213c-54 0 -132 13 -206 122c-57 -73 -116 -122 -206 -122c-101 0 -194 79 -194 205s89 210 205 210c88 0 149 -39 206 -116c37 42 93 118 200 116c103 -1 193 -77 193 -201zM253 206h2c56 0 101 49 134 93c-41 61 -70 108 -137 108
c-49 0 -93 -35 -93 -103c0 -53 42 -98 94 -98zM648 407h-1c-58 0 -101 -57 -134 -100c62 -86 96 -101 141 -101c56 0 86 55 86 96c0 60 -35 105 -92 105z" />
    <glyph glyph-name="integral" unicode="&#x222b;" horiz-adv-x="491" 
d="M490 923l-20 -129c-14 4 -31 6 -48 6c-31 0 -56 -14 -68 -34c-19 -30 -24 -79 -24 -165c0 -88 5 -160 11 -235c5 -75 10 -152 10 -253c0 -90 -15 -164 -41 -208c-41 -74 -117 -103 -190 -103c-38 0 -89 6 -115 17l24 136c15 -6 36 -10 56 -10c25 0 46 8 61 26
c22 26 31 65 31 146c0 103 -6 183 -11 260c-6 78 -12 153 -12 248c0 128 28 200 85 256c39 38 107 55 169 55c33 0 67 -7 82 -13z" />
    <glyph glyph-name="approxequal" unicode="&#x2248;" horiz-adv-x="696" 
d="M583 525l78 -81c-61 -84 -132 -118 -189 -118c-55 0 -90 16 -139 43c-30 16 -60 34 -101 34c-52 0 -91 -34 -129 -77l-76 81c39 60 126 117 206 117c57 0 92 -13 127 -35c50 -32 68 -42 104 -42c43 0 81 29 119 78zM583 295l78 -81c-60 -82 -129 -118 -191 -118
c-54 0 -92 18 -137 43c-35 18 -62 34 -100 34c-55 0 -92 -34 -130 -77l-76 81c39 59 127 117 207 117c55 0 91 -15 125 -34c33 -20 59 -43 103 -43c46 0 79 27 121 78z" />
    <glyph glyph-name="notequal" unicode="&#x2260;" horiz-adv-x="696" 
d="M527 568l-38 -82h150v-117h-203l-59 -130h262v-117h-316l-59 -129l-96 45l39 84h-150v117h203l59 130h-262v117h315l58 127z" />
    <glyph glyph-name="lessequal" unicode="&#x2264;" horiz-adv-x="696" 
d="M639 156l-582 242v125l581 240v-127l-451 -175v-2l452 -175v-128zM639 -1h-582v121h582v-121z" />
    <glyph glyph-name="greaterequal" unicode="&#x2265;" horiz-adv-x="696" 
d="M57 763l582 -241v-125l-581 -241v128l451 175v2l-452 175v127zM631 -1h-573v121h573v-121z" />
    <glyph glyph-name="lozenge" unicode="&#x25ca;" horiz-adv-x="811" 
d="M759 372l-269 -421h-171l-268 421l268 422h171zM565 368l-141 238c-7 12 -17 29 -21 38h-2c-5 -9 -14 -26 -21 -38l-135 -230l141 -238c7 -12 16 -29 19 -38h4c4 9 13 26 20 38z" />
    <glyph glyph-name="uni00A0" unicode="&#xa0;" horiz-adv-x="416" 
 />
    <glyph glyph-name="uni00AD" unicode="&#xad;" horiz-adv-x="485" 
d="M64 165v220h357v-220h-357z" />
    <glyph glyph-name="uni02C9" unicode="&#x2c9;" horiz-adv-x="600" 
d="M123 608v98h355v-98h-355z" />
    <glyph glyph-name="uni03A9" unicode="&#x3a9;" horiz-adv-x="1002" 
d="M224 165v4c-73 41 -164 127 -164 263c0 183 167 329 442 329c274 0 440 -142 440 -332c0 -131 -75 -201 -169 -260v-4h183v-165h-421v129c102 66 169 132 169 259c0 118 -80 211 -200 211c-110 0 -204 -76 -204 -214c0 -109 65 -205 170 -256v-129h-424v165h178z" />
    <glyph glyph-name="uni2215" unicode="&#x2215;" horiz-adv-x="127" 
d="M-249 0l517 754h108l-514 -754h-111z" />
    <glyph glyph-name="a.superior" horiz-adv-x="420" 
d="M170 599c0 -23 16 -44 42 -44c27 0 46 22 46 45c0 25 -18 42 -45 42c-26 0 -43 -20 -43 -43zM417 757v-317h-164l5 40h-4c-30 -30 -58 -49 -105 -49c-94 0 -146 88 -146 165c0 80 53 170 151 170c41 0 76 -16 100 -47h4l-5 38h164z" />
    <glyph glyph-name="o.superior" horiz-adv-x="420" 
d="M210 766c114 0 209 -59 209 -171c0 -106 -101 -164 -209 -164s-209 58 -209 164c0 112 95 171 209 171zM210 642c-28 0 -47 -20 -47 -46c0 -24 21 -41 47 -41s47 17 47 41c0 26 -19 46 -47 46z" />
    <glyph glyph-name="one.superior" horiz-adv-x="500" 
d="M124 608v143l252 7v-452h-177v307z" />
    <glyph glyph-name="two.superior" horiz-adv-x="500" 
d="M7 306l196 161c30 25 108 88 108 129c0 20 -18 36 -40 36c-38 0 -43 -30 -44 -57h-174c13 132 76 191 224 191c102 0 210 -55 210 -160c0 -91 -86 -147 -172 -172v-5l84 11l95 6v-140h-487z" />
    <glyph glyph-name="three.superior" horiz-adv-x="500" 
d="M23 465h179c-1 -27 21 -51 51 -51c24 0 48 18 48 41s-21 42 -45 42c-8 0 -16 -1 -24 -2v94l14 -1c20 -2 37 14 37 32c0 19 -15 30 -34 30c-20 0 -33 -17 -31 -35h-176c11 114 100 151 212 151c83 0 202 -35 202 -130c0 -37 -23 -72 -60 -87v-4c51 -12 81 -54 81 -102
c0 -110 -125 -144 -222 -144c-119 0 -227 42 -232 166z" />
    <glyph glyph-name="uni2206" unicode="&#x2206;" horiz-adv-x="898" 
d="M23 0v103l285 661h285l280 -661v-103h-850zM280 167h318l-111 294c-16 43 -35 94 -49 141h-6c-11 -33 -29 -89 -44 -133z" />
    <glyph glyph-name="uni2010" unicode="&#x2010;" horiz-adv-x="485" 
d="M64 165v220h357v-220h-357z" />
    </font>
</defs>
</svg>
